<svg xmlns="http://www.w3.org/2000/svg" viewBox="0 0 440.84 370.11"><defs><style>.cls-1{fill:#ebebeb;}.cls-2{fill:#fafafa;}.cls-3{fill:#e0e0e0;}.cls-4{fill:#fff;}.cls-5{fill:#f5f5f5;}.cls-6{fill:#263238;}.cls-7{fill:#ff725e;}.cls-8{fill:#455a64;}.cls-9{opacity:0.3;}.cls-10{fill:#0ffecd;}.cls-11{fill:#ffbf9d;}.cls-12{fill:#ff9a6c;}</style></defs><g id="Layer_2" data-name="Layer 2"><g id="Character"><polygon class="cls-1" points="351.94 318.08 359.76 369.52 405.23 369.52 415.79 318.83 351.94 318.08"/><path class="cls-2" d="M409.43,351.05c0,.15-11.65.26-26,.26s-26-.11-26-.26,11.65-.27,26-.27S409.43,350.9,409.43,351.05Z"/><path class="cls-2" d="M409.61,348.52c0,.15-11.73.27-26.2.27s-26.2-.12-26.2-.27,11.73-.27,26.2-.27S409.61,348.37,409.61,348.52Z"/><path class="cls-2" d="M409.52,345.66c0,.15-11.73.27-26.2.27s-26.2-.12-26.2-.27,11.73-.27,26.2-.27S409.52,345.51,409.52,345.66Z"/><path class="cls-2" d="M365,366.58a40.64,40.64,0,0,1-1.4-6.47,42.92,42.92,0,0,1-.87-6.57,40.61,40.61,0,0,1,1.4,6.48A42.87,42.87,0,0,1,365,366.58Z"/><path class="cls-2" d="M368.08,366a48.86,48.86,0,0,1-.56-6.32,49.5,49.5,0,0,1-.3-6.34,50.38,50.38,0,0,1,.86,12.66Z"/><path class="cls-2" d="M373.72,366A50.72,50.72,0,0,1,372.19,353a57.13,57.13,0,0,1,.87,6.51A57.43,57.43,0,0,1,373.72,366Z"/><path class="cls-2" d="M377.67,366.31a32.9,32.9,0,0,1-.63-6.59,31.46,31.46,0,0,1,.21-6.61,57.31,57.31,0,0,1,.33,6.6A54.76,54.76,0,0,1,377.67,366.31Z"/><path class="cls-2" d="M384.68,366a37.08,37.08,0,0,1-.48-6.25,36,36,0,0,1,.06-6.27,38.37,38.37,0,0,1,.48,6.25A37.2,37.2,0,0,1,384.68,366Z"/><path class="cls-2" d="M389.8,366.31a38.48,38.48,0,0,1-.22-6.46,40.34,40.34,0,0,1,.32-6.46,38.39,38.39,0,0,1,.22,6.46A39.1,39.1,0,0,1,389.8,366.31Z"/><path class="cls-2" d="M394.6,365.62a42,42,0,0,1,.38-6.75,44,44,0,0,1,.92-6.71,41.53,41.53,0,0,1-.39,6.76A44.57,44.57,0,0,1,394.6,365.62Z"/><path class="cls-2" d="M400.78,365a35.61,35.61,0,0,1,2.46-11.29,53.9,53.9,0,0,1-1.17,5.66A51.37,51.37,0,0,1,400.78,365Z"/><path class="cls-1" d="M396.4,216.59a1,1,0,0,1,0,.26q-.09.28-.21.72c-.21.68-.5,1.61-.87,2.78s-.85,2.67-1.33,4.4-1.1,3.67-1.64,5.86-1.21,4.57-1.78,7.17-1.16,5.36-1.75,8.28c-1.09,5.86-2.08,12.35-2.79,19.19s-1,13.41-1.06,19.37c0,3,0,5.82.08,8.47s.19,5.12.33,7.37.3,4.29.44,6.07.3,3.33.44,4.58.23,2.19.3,2.89c0,.31.05.56.07.76a.86.86,0,0,1,0,.26,1,1,0,0,1-.06-.26c0-.2-.07-.44-.11-.74-.1-.7-.23-1.67-.4-2.88s-.37-2.79-.53-4.58-.41-3.82-.53-6.07-.32-4.73-.39-7.39-.11-5.49-.13-8.48c.06-6,.36-12.55,1-19.42s1.72-13.36,2.84-19.23c.6-2.93,1.15-5.72,1.8-8.3s1.24-5,1.84-7.16,1.2-4.13,1.72-5.85,1-3.18,1.42-4.38.73-2.07,1-2.74l.27-.71A1.13,1.13,0,0,1,396.4,216.59Z"/><path class="cls-1" d="M388.2,248.44a16.86,16.86,0,0,1,7.07-8.93c1.12-.7,2.54-1.26,3.74-.69,1.58.77,1.71,3,1.24,4.7a12.44,12.44,0,0,1-5.15,7,10.47,10.47,0,0,1-7.72,1.95"/><path class="cls-1" d="M385.43,270c1.18-4.44,4.72-10.75,8.4-13.5a5.28,5.28,0,0,1,1.91-1,2.23,2.23,0,0,1,2,.44,3.14,3.14,0,0,1,.45,2.95A17.88,17.88,0,0,1,385,272.17"/><path class="cls-1" d="M384.67,288.88a26,26,0,0,1,8.47-10.65,4,4,0,0,1,2.95-1.06c1.61.3,2.34,2.26,2.2,3.88-.29,3.35-2.85,6-5.49,8.12a33.88,33.88,0,0,1-7.83,4"/><path class="cls-1" d="M385.1,302.48a25.13,25.13,0,0,1,7.2-8.2,5.25,5.25,0,0,1,2.17-1,2.2,2.2,0,0,1,2.12.81c.72,1.06,0,2.49-.74,3.52a20.58,20.58,0,0,1-10.28,7.54"/><path class="cls-1" d="M384.74,297a79.84,79.84,0,0,0-10.3-10.5c-.58-.49-1.32-1-2.05-.77a1.52,1.52,0,0,0-.95,1.38,4,4,0,0,0,.39,1.72A20,20,0,0,0,385.1,300"/><path class="cls-1" d="M385.07,279.25,377,269.38a9.73,9.73,0,0,0-2.63-2.49,3.32,3.32,0,0,0-3.45,0,3.26,3.26,0,0,0-1.11,3.26,8.66,8.66,0,0,0,1.58,3.24,23.94,23.94,0,0,0,5.9,6.26c2.37,1.64,4.53,2.7,7.39,2.28"/><path class="cls-1" d="M386.2,259.31a28.22,28.22,0,0,0-8.15-12.23,4.82,4.82,0,0,0-2.12-1.24c-1.62-.31-3.19,1-3.71,2.61a6.68,6.68,0,0,0,.74,5.36,14.12,14.12,0,0,0,3.8,4,32.46,32.46,0,0,0,9,4.86"/><path class="cls-1" d="M389.43,241.53c-.78-5.72-3.76-10.48-7.21-15.11-.73-1-1.74-2-2.94-1.82a2.29,2.29,0,0,0-1.69,1.45,5.34,5.34,0,0,0-.33,2.28,17.69,17.69,0,0,0,11.47,15.79"/><path class="cls-1" d="M391.7,232.46a46.83,46.83,0,0,1-.3-8.85,15.84,15.84,0,0,1,2.94-8.24,6.8,6.8,0,0,1,2.94-2.34,3.68,3.68,0,0,1,3.6.48,4,4,0,0,1,1.24,3.17,10.05,10.05,0,0,1-.92,3.39c-2.15,5.19-5.75,10.93-9.5,12.39"/><path class="cls-3" d="M356.44,239.27a3.74,3.74,0,0,1,0,.73c0,.53,0,1.21,0,2.07s0,2,.06,3.29.05,2.73.15,4.34c.14,3.22.46,7,.94,11.27s1.25,8.85,2.24,13.66,2.22,9.33,3.44,13.41,2.5,7.7,3.67,10.7c.55,1.51,1.12,2.85,1.6,4s.91,2.2,1.27,3,.61,1.42.81,1.91a4.06,4.06,0,0,1,.26.68,3,3,0,0,1-.35-.64c-.23-.47-.53-1.1-.91-1.87s-.86-1.81-1.36-3-1.1-2.51-1.67-4c-1.22-3-2.51-6.62-3.79-10.7s-2.46-8.62-3.49-13.44-1.71-9.47-2.21-13.71-.73-8.09-.82-11.31c-.09-1.62-.07-3.08-.08-4.36s0-2.39,0-3.29.05-1.55.07-2.08A3.76,3.76,0,0,1,356.44,239.27Z"/><path class="cls-3" d="M357.7,262.72a12.09,12.09,0,0,1,2.9-7.6,2.85,2.85,0,0,1,2.39-1.27c1.25.18,1.82,1.67,1.86,2.93a8.9,8.9,0,0,1-2,5.88,7.5,7.5,0,0,1-4.84,3"/><path class="cls-3" d="M360.45,278c-.15-3.28.9-8.34,2.81-11a3.9,3.9,0,0,1,1.08-1.1,1.59,1.59,0,0,1,1.49-.14,2.26,2.26,0,0,1,.94,1.91,12.76,12.76,0,0,1-6.16,11.95"/><path class="cls-3" d="M364,291a18.54,18.54,0,0,1,3.47-9.07,2.89,2.89,0,0,1,1.79-1.35c1.15-.15,2.07,1,2.33,2.16.52,2.35-.65,4.73-2,6.71a24.47,24.47,0,0,1-4.47,4.43"/><path class="cls-3" d="M367.23,300.18a17.82,17.82,0,0,1,3.14-7.13,3.78,3.78,0,0,1,1.26-1.13,1.57,1.57,0,0,1,1.62.1c.72.56.56,1.69.25,2.55a14.7,14.7,0,0,1-5.37,7.35"/><path class="cls-3" d="M365.8,296.5a56.85,56.85,0,0,0-9.28-4.93,1.64,1.64,0,0,0-1.56-.09,1.1,1.1,0,0,0-.35,1.15,2.88,2.88,0,0,0,.64,1.09,14.27,14.27,0,0,0,11.43,4.74"/><path class="cls-3" d="M362.21,284.37l-7.64-5a7,7,0,0,0-2.32-1.13,2.39,2.39,0,0,0-2.36.72,2.32,2.32,0,0,0-.05,2.45,6.07,6.07,0,0,0,1.77,1.87,17.14,17.14,0,0,0,5.37,3c2,.6,3.66.86,5.52,0"/><path class="cls-3" d="M358.68,270.55a20.16,20.16,0,0,0-8.17-6.57,3.48,3.48,0,0,0-1.71-.39,2.55,2.55,0,0,0-2,2.58,4.78,4.78,0,0,0,1.66,3.49,9.92,9.92,0,0,0,3.45,1.92,23.43,23.43,0,0,0,7.18,1.37"/><path class="cls-3" d="M357.06,257.75c-1.77-3.72-4.82-6.32-8.16-8.73-.71-.51-1.62-1-2.4-.61a1.65,1.65,0,0,0-.84,1.35,4,4,0,0,0,.27,1.63,12.63,12.63,0,0,0,11.21,8.27"/><path class="cls-3" d="M356.65,251.09a33.81,33.81,0,0,1-2.11-6,11.31,11.31,0,0,1,.23-6.24,4.9,4.9,0,0,1,1.49-2.23,2.65,2.65,0,0,1,2.56-.45,2.82,2.82,0,0,1,1.53,1.89,7,7,0,0,1,.1,2.51c-.35,4-1.56,8.68-3.8,10.48"/><path class="cls-1" d="M413.93,238.77a3.47,3.47,0,0,1,.06.73c0,.52.05,1.21.08,2.07s.06,2,0,3.29,0,2.74-.08,4.36c-.09,3.22-.37,7.06-.83,11.31S412,269.41,411,274.24s-2.24,9.36-3.49,13.45-2.57,7.69-3.78,10.69c-.57,1.51-1.18,2.84-1.68,4s-1,2.18-1.36,3-.67,1.4-.9,1.87a3.77,3.77,0,0,1-.35.64,3.4,3.4,0,0,1,.25-.68c.21-.49.48-1.12.81-1.91s.8-1.84,1.27-3,1.06-2.53,1.61-4c1.16-3,2.41-6.63,3.66-10.7s2.42-8.6,3.44-13.41,1.72-9.44,2.24-13.66.8-8.05.94-11.27c.11-1.61.12-3.06.16-4.34s.05-2.38.05-3.29,0-1.54,0-2.07A3.18,3.18,0,0,1,413.93,238.77Z"/><path class="cls-1" d="M412.66,262.22a12.08,12.08,0,0,0-2.89-7.6,2.89,2.89,0,0,0-2.4-1.27c-1.24.18-1.81,1.67-1.86,2.93a8.84,8.84,0,0,0,2,5.88,7.47,7.47,0,0,0,4.84,3"/><path class="cls-1" d="M409.91,277.46c.16-3.27-.9-8.33-2.81-11a3.9,3.9,0,0,0-1.08-1.1,1.57,1.57,0,0,0-1.48-.14,2.24,2.24,0,0,0-1,1.91,12.78,12.78,0,0,0,6.16,11.95"/><path class="cls-1" d="M406.35,290.51a18.45,18.45,0,0,0-3.47-9.07,2.84,2.84,0,0,0-1.78-1.35c-1.16-.15-2.08,1-2.33,2.17-.52,2.34.64,4.72,2,6.7a24.14,24.14,0,0,0,4.47,4.43"/><path class="cls-1" d="M403.13,299.69a17.78,17.78,0,0,0-3.13-7.14,3.81,3.81,0,0,0-1.27-1.13,1.59,1.59,0,0,0-1.62.1c-.72.56-.56,1.69-.25,2.55a14.62,14.62,0,0,0,5.38,7.35"/><path class="cls-1" d="M404.57,296a57.17,57.17,0,0,1,9.27-4.93,1.69,1.69,0,0,1,1.57-.09,1.11,1.11,0,0,1,.34,1.15,2.76,2.76,0,0,1-.64,1.09A14.24,14.24,0,0,1,403.68,298"/><path class="cls-1" d="M408.16,283.87l7.63-5a7.14,7.14,0,0,1,2.32-1.13,2.38,2.38,0,0,1,2.36.72,2.34,2.34,0,0,1,.06,2.46,6.18,6.18,0,0,1-1.78,1.86,17.09,17.09,0,0,1-5.36,3c-2,.6-3.67.86-5.52,0"/><path class="cls-1" d="M411.68,270.05a20.19,20.19,0,0,1,8.18-6.57,3.42,3.42,0,0,1,1.71-.38,2.54,2.54,0,0,1,2,2.57,4.78,4.78,0,0,1-1.66,3.49,10,10,0,0,1-3.46,1.92,23.42,23.42,0,0,1-7.17,1.37"/><path class="cls-1" d="M413.31,257.25c1.76-3.72,4.81-6.32,8.16-8.73a2.48,2.48,0,0,1,2.4-.61,1.66,1.66,0,0,1,.83,1.35,3.84,3.84,0,0,1-.27,1.63,12.63,12.63,0,0,1-11.2,8.28"/><path class="cls-1" d="M413.72,250.59a34.3,34.3,0,0,0,2.1-6,11.31,11.31,0,0,0-.22-6.24,4.84,4.84,0,0,0-1.5-2.23,2.68,2.68,0,0,0-2.56-.45,2.82,2.82,0,0,0-1.52,1.9,7.23,7.23,0,0,0-.11,2.5c.35,4,1.56,8.68,3.81,10.48"/><path class="cls-1" d="M346.72,307.9v9.62a3.78,3.78,0,0,0,3.79,3.79h65.84a3.78,3.78,0,0,0,3.79-3.79V307.9Z"/><polygon class="cls-3" points="352.43 321.31 352.97 324.38 413.73 328.71 415.27 321.31 352.43 321.31"/><path class="cls-4" d="M224.34,5.9A5.68,5.68,0,1,1,218.66.22,5.68,5.68,0,0,1,224.34,5.9Z"/><path class="cls-3" d="M224.34,5.9c-.05,0,0-.51-.28-1.36a5.64,5.64,0,0,0-2.08-3,5.47,5.47,0,0,0-8.74,4.37A5.47,5.47,0,0,0,222,10.27a5.64,5.64,0,0,0,2.08-3c.24-.85.23-1.36.28-1.36s0,.13,0,.37a4.09,4.09,0,0,1-.11,1,5.62,5.62,0,0,1-2,3.25,5.87,5.87,0,0,1-8.33-1.15,5.89,5.89,0,0,1,0-7,5.87,5.87,0,0,1,8.33-1.15,5.62,5.62,0,0,1,2,3.25,4.16,4.16,0,0,1,.11,1Q224.37,5.9,224.34,5.9Z"/><path class="cls-1" d="M283.84,4.89a3.1,3.1,0,1,1-3.1-3.1A3.1,3.1,0,0,1,283.84,4.89Z"/><path class="cls-1" d="M128.58,155.27a14.49,14.49,0,0,0-22.71-17.11,9,9,0,0,0-3.9-7,14.1,14.1,0,0,0-7.87-2.39,19.87,19.87,0,0,0-14.44,5.8c-3.75,3.79-5.8,11.17-5.61,16.49-3-.46-7.31,2.4-9.15,4.78a19.75,19.75,0,0,0,18.86,31.55,17.43,17.43,0,0,0,31.46,3,10,10,0,0,1,2.42-3.3c1.27-.93,3-1,4.5-1.25a16.74,16.74,0,0,0,6.44-30.56Z"/><circle class="cls-1" cx="150.49" cy="149.14" r="4.76"/><path class="cls-5" d="M410.75,58.08a11,11,0,0,0-16.89,13.21A11.14,11.14,0,1,0,401.14,91c.56,5.68,6.8,10.08,12.34,8.69s9-8.21,6.78-13.48c5.41,2.3,12.47-1.55,13.46-7.34s-4.38-11.78-10.24-11.42a7.62,7.62,0,0,0-1-9.57c-2.55-2.4-8.77-3.47-11.71.22"/><circle class="cls-5" cx="375.54" cy="65.05" r="3.11"/><path class="cls-4" d="M358.36,155.25a17.29,17.29,0,0,1,27.09-20.41,10.77,10.77,0,0,1,4.66-8.4,16.89,16.89,0,0,1,9.39-2.86,23.68,23.68,0,0,1,17.21,6.93c4.48,4.52,6.92,13.32,6.7,19.68,3.55-.56,8.72,2.85,10.91,5.69a23.55,23.55,0,0,1-22.49,37.64,20.81,20.81,0,0,1-37.54,3.62c-.83-1.42-1.54-3-2.87-3.95-1.53-1.1-3.53-1.18-5.38-1.48a20,20,0,0,1-7.68-36.46Z"/><path class="cls-3" d="M358.36,155.25s-.13.11-.41.31-.71.49-1.2.94a18.91,18.91,0,0,0-3.88,4.38,20.83,20.83,0,0,0-3.24,8.71,18.84,18.84,0,0,0,2.38,12,21.57,21.57,0,0,0,4.72,5.56,20.27,20.27,0,0,0,7,3.77,24,24,0,0,0,4.15.81,7.5,7.5,0,0,1,4.16,1.65,17.16,17.16,0,0,1,2.58,3.81,19.69,19.69,0,0,0,2.88,3.65,21.43,21.43,0,0,0,8.17,5.11,20.2,20.2,0,0,0,10.06.84,21.18,21.18,0,0,0,15.88-13.39l.07-.2.21,0a23.49,23.49,0,0,0,8.39-.24,25,25,0,0,0,8-3.28,23.71,23.71,0,0,0,6.46-6.06,22.5,22.5,0,0,0,3.6-8.26,24.82,24.82,0,0,0,.3-8.46,24.38,24.38,0,0,0-2.55-7.91c-.34-.6-.69-1.2-1.06-1.78s-.77-1.14-1.22-1.64a16.53,16.53,0,0,0-3-2.7,16.86,16.86,0,0,0-3.51-1.91,7.67,7.67,0,0,0-3.81-.6l-.3,0v-.3a31.35,31.35,0,0,0-1-8.33,29.78,29.78,0,0,0-3-7.58,18.32,18.32,0,0,0-5.24-5.82A23.81,23.81,0,0,0,407.2,125a22.62,22.62,0,0,0-7.23-1.15,18.17,18.17,0,0,0-6.89,1.25,12.39,12.39,0,0,0-5.31,3.94,9.94,9.94,0,0,0-2.13,5.84v.43l-.32-.29A17.24,17.24,0,0,0,376,130.9a18.07,18.07,0,0,0-9,1.21,15.67,15.67,0,0,0-6.32,4.79,17.44,17.44,0,0,0-3.07,6,18.73,18.73,0,0,0-.78,5.34,17.82,17.82,0,0,0,.47,3.93,15.12,15.12,0,0,0,.75,2.34l.3.77s-.13-.26-.36-.77a13.34,13.34,0,0,1-.8-2.31,17.74,17.74,0,0,1-.53-4,19,19,0,0,1,.74-5.4,17.89,17.89,0,0,1,3.07-6.08,15.91,15.91,0,0,1,6.41-4.9,18.33,18.33,0,0,1,9.19-1.28,17.52,17.52,0,0,1,9.5,4.14l-.32.15c0-4.35,3.27-8.49,7.66-10.17a18.7,18.7,0,0,1,7-1.31,23.37,23.37,0,0,1,7.39,1.16,24.19,24.19,0,0,1,6.9,3.55,18.69,18.69,0,0,1,5.38,6,30,30,0,0,1,3,7.7,31.37,31.37,0,0,1,1,8.46l-.3-.25a8.18,8.18,0,0,1,4.07.62,17.48,17.48,0,0,1,3.63,2,17.85,17.85,0,0,1,3.12,2.78c.47.54.83,1.13,1.25,1.7s.74,1.2,1.08,1.81a24.53,24.53,0,0,1,2.61,8.09,25.12,25.12,0,0,1-.3,8.64,23.09,23.09,0,0,1-3.69,8.46,24.24,24.24,0,0,1-6.6,6.18,25.3,25.3,0,0,1-8.18,3.35,23.85,23.85,0,0,1-8.58.23l.28-.16a21.64,21.64,0,0,1-16.27,13.69,20.63,20.63,0,0,1-10.29-.88,21.91,21.91,0,0,1-8.33-5.23,20.12,20.12,0,0,1-2.93-3.74,16.88,16.88,0,0,0-2.5-3.73,7.08,7.08,0,0,0-3.94-1.55,24.42,24.42,0,0,1-4.2-.85,20.4,20.4,0,0,1-7.1-3.86,21.86,21.86,0,0,1-4.77-5.67,19.1,19.1,0,0,1-2.35-12.24,20.93,20.93,0,0,1,3.34-8.76,18.51,18.51,0,0,1,4-4.36,14.1,14.1,0,0,1,1.22-.89Z"/><path class="cls-4" d="M339.53,147.41a5.68,5.68,0,1,0,5.68-5.68A5.68,5.68,0,0,0,339.53,147.41Z"/><path class="cls-3" d="M339.53,147.41s0-.13,0-.37a4.27,4.27,0,0,1,.12-1,5.64,5.64,0,0,1,2.05-3.24A5.87,5.87,0,0,1,350,143.9a5.88,5.88,0,0,1,0,7,5.86,5.86,0,0,1-8.33,1.16,5.68,5.68,0,0,1-2.05-3.25,4.27,4.27,0,0,1-.12-1c0-.24,0-.36,0-.36s0,.5.27,1.36a5.73,5.73,0,0,0,2.08,3,5.45,5.45,0,1,0,0-8.73,5.73,5.73,0,0,0-2.08,3C339.57,146.9,339.58,147.41,339.53,147.41Z"/><path class="cls-3" d="M404.16,176.65c0-2.57-.16-7.05-.21-12.18,0-8-.83-14.54-1.46-14.49h0c-.19-.65-4.86.66-10.51.1a19.84,19.84,0,0,1-6.87-1.82A19.09,19.09,0,0,1,383,147c-.13-.44-.26-.68-.38-.67-.56.06-.75,6.49-.7,14.54a69.79,69.79,0,0,0,.69,9.33,6.37,6.37,0,0,0-1.45-1,6.28,6.28,0,1,0,3.13,3.85c0-2.58-.16-7.06-.2-12.18,0-2.48-.1-4.82-.23-6.86a16.42,16.42,0,0,0,9,3,16.8,16.8,0,0,0,9.06-1.87c-.09,2.53-.12,5.82-.1,9.44a71.5,71.5,0,0,0,.69,9.33,6,6,0,0,0-1.44-1,6.27,6.27,0,1,0,3.13,3.84Zm-11.22-21.86c-4.41-.2-7.93-1.53-9.19-1.67-.13-1.79-.29-3.33-.47-4.48a6.57,6.57,0,0,0,1,.91,14.54,14.54,0,0,0,7.48,2.69c5.43.51,9.63-1.2,10.53-2a20.77,20.77,0,0,0-.38,3.85A45.49,45.49,0,0,1,392.94,154.79Z"/><path class="cls-6" d="M435.75,369.85l1.27,0,3.82,0v.11c-21.34.11-110.8.2-217.87.2L65.3,370,17.52,370l-13-.05-3.38,0-1.15,0s.39,0,1.15,0l3.38,0,13-.05,47.78-.08L223,369.59c107.07,0,196.53.09,217.87.21v.11l-3.82,0Z"/><path class="cls-7" d="M100.82,264.12a7.72,7.72,0,0,0-.55,3.43,11.64,11.64,0,0,0-1.56-3.89c-.28-.44-.73-.92-1.24-.79s-.67.77-.69,1.3a8.44,8.44,0,0,0,1,4.18,9.33,9.33,0,0,0-3.54-2.74.82.82,0,0,0-.77-.06c-.26.16-.27.54-.22.85a7.15,7.15,0,0,0,4.34,5.53l.75.11a6.66,6.66,0,0,0,4.78-7.66c-.11-.62-.47-1.34-1.1-1.35S101,263.59,100.82,264.12Z"/><path class="cls-8" d="M84,297.66a21.8,21.8,0,0,1,7.12-2.87,29.28,29.28,0,0,1-.2-15.73,14.9,14.9,0,0,1,2.66-5.66,7.73,7.73,0,0,1,5.34-3,7.51,7.51,0,0,1,5.94,2.75l2.63,6.08a21.83,21.83,0,0,1,.31,2.67,32.07,32.07,0,0,1-3.83,17c2.74,3,5.7,8.22,4.81,14.25H77.6C77.05,307.38,79.26,301.1,84,297.66Z"/><path class="cls-6" d="M105.38,300.85a1.41,1.41,0,0,0-.24-.34,8.39,8.39,0,0,0-.77-.9,14.39,14.39,0,0,0-3.46-2.64,16.14,16.14,0,0,0-6.15-2,14.9,14.9,0,0,0-14,6,16.43,16.43,0,0,0-2.8,5.82,14.62,14.62,0,0,0-.45,4.34,10.16,10.16,0,0,0,.12,1.17,1.19,1.19,0,0,0,.09.41,18.81,18.81,0,0,1,.57-5.83,16.54,16.54,0,0,1,2.82-5.64,14.7,14.7,0,0,1,13.59-5.87,16.41,16.41,0,0,1,6,1.83A18.7,18.7,0,0,1,105.38,300.85Z"/><path class="cls-6" d="M108,284.15a8.06,8.06,0,0,0,.05-2.07,17.72,17.72,0,0,0-.84-4.94,10.06,10.06,0,0,0-2.67-4.24,4.11,4.11,0,0,0-1.76-1.11c0,.07.66.45,1.53,1.35a11.08,11.08,0,0,1,2.45,4.15,22.79,22.79,0,0,1,1,4.81A10.21,10.21,0,0,0,108,284.15Z"/><path class="cls-6" d="M90,309.19a30.67,30.67,0,0,0-2.92-3,29.52,29.52,0,0,0-3-2.88,13.81,13.81,0,0,0,2.68,3.22A13.82,13.82,0,0,0,90,309.19Z"/><path class="cls-6" d="M93.42,307.38a10.57,10.57,0,0,0-.5-3.1,10.42,10.42,0,0,0-1-3,10.36,10.36,0,0,0,.51,3.09A10.75,10.75,0,0,0,93.42,307.38Z"/><path class="cls-6" d="M102.69,303.91a12.19,12.19,0,0,0-2.73,6,21.91,21.91,0,0,0,1.38-3A21.73,21.73,0,0,0,102.69,303.91Z"/><path class="cls-6" d="M92.67,289.34a15.77,15.77,0,0,0-2.11-3.18,15.7,15.7,0,0,0-2.49-2.9,15.77,15.77,0,0,0,2.11,3.18A15.27,15.27,0,0,0,92.67,289.34Z"/><path class="cls-6" d="M94.87,279.58a22.08,22.08,0,0,0-2.39-3.9A21.09,21.09,0,0,0,89.7,272a23.64,23.64,0,0,0,2.39,3.9A21.69,21.69,0,0,0,94.87,279.58Z"/><path class="cls-6" d="M98.39,282.14a23.16,23.16,0,0,0-.42,6.64,12,12,0,0,0,.45-3.3A12.13,12.13,0,0,0,98.39,282.14Z"/><path class="cls-6" d="M112.4,286.58a20.8,20.8,0,0,0-4.42,2.26,20.37,20.37,0,0,0-4,2.9,35.6,35.6,0,0,0,4.28-2.49A36.26,36.26,0,0,0,112.4,286.58Z"/><g class="cls-9"><path d="M101.17,295a11,11,0,0,0-5.06-1.25c-1.81-.09-3.85.1-5.08,1.44v.06a19,19,0,0,1,12.82,4A5.11,5.11,0,0,0,101.17,295Z"/></g><path class="cls-7" d="M86.34,233.7a6.14,6.14,0,0,0-2.73-.1A9.18,9.18,0,0,0,86.5,232c.32-.26.65-.65.5-1s-.66-.45-1.08-.42a6.65,6.65,0,0,0-3.18,1.14,7.23,7.23,0,0,0,1.81-3,.66.66,0,0,0,0-.6.67.67,0,0,0-.69-.1,5.62,5.62,0,0,0-3.91,3.92l0,.59a5.24,5.24,0,0,0,6.44,3c.47-.15,1-.49,1-1S86.77,233.82,86.34,233.7Z"/><path class="cls-7" d="M23.41,193.82a6.19,6.19,0,0,0,.13,2.74,9.12,9.12,0,0,0-1.83-2.75c-.28-.3-.71-.6-1.08-.42s-.39.71-.32,1.11a6.52,6.52,0,0,0,1.4,3.08A7.3,7.3,0,0,0,18.54,196a.66.66,0,0,0-.6.07c-.18.17-.12.47,0,.7a5.63,5.63,0,0,0,4.23,3.57l.6,0a5.24,5.24,0,0,0,2.46-6.66c-.18-.46-.57-1-1.06-.87S23.49,193.38,23.41,193.82Z"/><path class="cls-8" d="M67.22,275.41c-.46,0-.89.07-1.33.12-.81-8.92,1.89-18-.83-26.49l.36.47a20.14,20.14,0,0,0,9.78-.88,12.27,12.27,0,0,0,7.08-6.56,8.84,8.84,0,0,0-1.51-9.26c-3.09-3.22-8.52-3.06-12.39-.83s-6.35,5.74-8.82,9.28a16,16,0,0,0-4.26-2.45c4.3-5.92,8.46-12.14,9.82-19.29,1.48-7.83-1.44-17.1-8.7-20.36-6.19-2.79-14-.27-18.31,4.92-.34.41-.63.85-.93,1.28l.15-.42a11.29,11.29,0,0,0-5.89-6.2,9.56,9.56,0,0,0-8.44.41,8.35,8.35,0,0,0-4.15,7.25,9.27,9.27,0,0,0,5.38,7.71,14.58,14.58,0,0,0,9.25.86,28.22,28.22,0,0,0,.05,8.31c1,6.22,3.74,12,7,17.4a15.42,15.42,0,0,0-2.53,2.1c-5.61,5.87-6,15.29-3,22.85s10.89,13.15,16.41,19.1h0A36,36,0,0,0,47.19,298a12.12,12.12,0,0,0-10.69-6.86c-2.4,0-5.1,1.09-5.85,3.38-.66,2,.45,4.2,1.89,5.77a15.33,15.33,0,0,0,14.12,4.14l.06-1.48A64,64,0,0,0,47,313.16h35.6S92.08,274.49,67.22,275.41Z"/><rect class="cls-6" x="39.14" y="313.16" width="84.24" height="14.93"/><polygon class="cls-6" points="45.43 325.13 55.67 369.75 105.88 369.75 117.09 325.13 45.43 325.13"/><path class="cls-6" d="M123.33,328.11c0,.17-19,.3-42.43.3s-42.44-.13-42.44-.3,19-.29,42.44-.29S123.33,328,123.33,328.11Z"/><path class="cls-6" d="M73.83,276.88a2.41,2.41,0,0,0-.49-.27,9.52,9.52,0,0,0-1.48-.64A14.5,14.5,0,0,0,66,275.3a17.82,17.82,0,0,0-8.25,2.88,22.25,22.25,0,0,0-7.09,8,33,33,0,0,0-3.39,10.18,54.4,54.4,0,0,0-.57,8.73c0,2.49.09,4.51.14,5.9,0,.65,0,1.18.07,1.6a2,2,0,0,0,.06.55,3,3,0,0,0,0-.56c0-.41,0-.94,0-1.6,0-1.45,0-3.45,0-5.88a56.8,56.8,0,0,1,.66-8.67,32.7,32.7,0,0,1,3.38-10A22.08,22.08,0,0,1,58,278.55a17.81,17.81,0,0,1,8-2.92,14.83,14.83,0,0,1,5.78.52C73.13,276.55,73.8,276.94,73.83,276.88Z"/><path class="cls-6" d="M66.3,258a1.16,1.16,0,0,0,.06-.42,12.08,12.08,0,0,0,0-1.22,19.88,19.88,0,0,0-.53-4.46,20.79,20.79,0,0,0-2.47-6.18A17.4,17.4,0,0,0,61,242.54a14.06,14.06,0,0,0-3.33-2.64,14.29,14.29,0,0,0-4-1.53,16.78,16.78,0,0,0-4-.29,19.22,19.22,0,0,0-6.49,1.54,21.48,21.48,0,0,0-3.94,2.15c-.44.28-.75.56-1,.72s-.32.27-.31.29.5-.31,1.39-.86a24.41,24.41,0,0,1,4-2,19.7,19.7,0,0,1,6.38-1.42,16.34,16.34,0,0,1,3.83.32,13.75,13.75,0,0,1,7.07,4A17.35,17.35,0,0,1,63,245.92a21.25,21.25,0,0,1,2.52,6,21.64,21.64,0,0,1,.67,4.38C66.27,257.39,66.26,258,66.3,258Z"/><path class="cls-6" d="M33.2,220.31a16.62,16.62,0,0,0,.31-2.86c.07-.88.15-1.93.35-3.07a15,15,0,0,1,1-3.62,36.69,36.69,0,0,1,3.25-6c1-1.47,1.71-2.28,1.66-2.34s-.24.16-.59.52a15.18,15.18,0,0,0-1.34,1.63,30.2,30.2,0,0,0-3.42,6.06,14.61,14.61,0,0,0-1,3.73,25.78,25.78,0,0,0-.26,3.12A18.36,18.36,0,0,0,33.2,220.31Z"/><path class="cls-6" d="M37.8,300.37a9.63,9.63,0,0,0-2.43,1.79,9.64,9.64,0,0,0-2.11,2.15,9.69,9.69,0,0,0,2.42-1.79A9.8,9.8,0,0,0,37.8,300.37Z"/><path class="cls-6" d="M34.81,297.39a10,10,0,0,0-3-.53,9.79,9.79,0,0,0-3.06-.06,10,10,0,0,0,3,.53A10.16,10.16,0,0,0,34.81,297.39Z"/><path class="cls-6" d="M37.08,292.14a18.23,18.23,0,0,0-1.69-2.34,17.68,17.68,0,0,0-1.71-2.33A6.29,6.29,0,0,0,35,290.08,6.19,6.19,0,0,0,37.08,292.14Z"/><path class="cls-6" d="M41.06,289.73a13.49,13.49,0,0,0,.55,3.45,13.16,13.16,0,0,0,1,3.34,13,13,0,0,0-.55-3.45A12.54,12.54,0,0,0,41.06,289.73Z"/><path class="cls-6" d="M43.73,301.76c.09-.09-.48-.74-1.26-1.45s-1.48-1.19-1.57-1.09.47.74,1.26,1.45S43.64,301.86,43.73,301.76Z"/><path class="cls-6" d="M56.11,299.43a6.7,6.7,0,0,0-1.53-1.93c-.93-1-1.77-1.7-1.87-1.61a6.67,6.67,0,0,0,1.53,1.94C55.18,298.8,56,299.52,56.11,299.43Z"/><path class="cls-6" d="M58.8,288a7.22,7.22,0,0,0-1.14-2.32,7.35,7.35,0,0,0-1.55-2.07,7.22,7.22,0,0,0,1.14,2.32A7.14,7.14,0,0,0,58.8,288Z"/><path class="cls-6" d="M66.68,278.69a9.46,9.46,0,0,0-.28,3,9.66,9.66,0,0,0,.2,3,9.82,9.82,0,0,0,.28-3A9.62,9.62,0,0,0,66.68,278.69Z"/><path class="cls-6" d="M83.22,281.85a20.68,20.68,0,0,0-2.35,2.74,22.37,22.37,0,0,0-2.25,2.83,10.36,10.36,0,0,0,2.61-2.52A10.31,10.31,0,0,0,83.22,281.85Z"/><path class="cls-6" d="M85.34,298.09a9.8,9.8,0,0,0-3,.33,9.16,9.16,0,0,0-2.85.8,9.73,9.73,0,0,0,2.94-.33A9.17,9.17,0,0,0,85.34,298.09Z"/><path class="cls-6" d="M68.18,303.75A8.74,8.74,0,0,0,67,300.5a8.54,8.54,0,0,0-2-2.84,24.3,24.3,0,0,0,1.53,3.06A23.32,23.32,0,0,0,68.18,303.75Z"/><path class="cls-6" d="M73.9,296a12.43,12.43,0,0,0,.11-4.81A12.43,12.43,0,0,0,73.9,296Z"/><path class="cls-6" d="M55.44,309.7a8.05,8.05,0,0,0-2.79-4.54A14.69,14.69,0,0,0,54,307.44,14.2,14.2,0,0,0,55.44,309.7Z"/><path class="cls-6" d="M75,310.83A14.53,14.53,0,0,0,77.15,306a7.43,7.43,0,0,0-1.28,2.31A7.62,7.62,0,0,0,75,310.83Z"/><path class="cls-6" d="M44.58,274.61a11.42,11.42,0,0,0-3.26-.13,11.53,11.53,0,0,0-3.25.34,11.33,11.33,0,0,0,3.26.13A11.6,11.6,0,0,0,44.58,274.61Z"/><path class="cls-6" d="M37.48,262.45a17.44,17.44,0,0,0-3.13-2.51,16.79,16.79,0,0,0-3.41-2.12,17,17,0,0,0,3.13,2.51A16.79,16.79,0,0,0,37.48,262.45Z"/><path class="cls-6" d="M38.21,246.84a18.67,18.67,0,0,0-2.55-1.69,20.63,20.63,0,0,0-2.55-1.69,7,7,0,0,0,2.29,2.08A6.93,6.93,0,0,0,38.21,246.84Z"/><path class="cls-6" d="M46.17,241.32a15.67,15.67,0,0,0-.69-3.81,15.86,15.86,0,0,0-1.15-3.69,31.48,31.48,0,0,0,1.84,7.5Z"/><path class="cls-6" d="M59.47,237.38a8.48,8.48,0,0,0-1.55,2.3,8,8,0,0,0-1.13,2.52,8.32,8.32,0,0,0,1.55-2.29A7.94,7.94,0,0,0,59.47,237.38Z"/><path class="cls-6" d="M70.93,263.73c-.09-.11-1.6,1-3.6,2.28s-3.71,2.07-3.65,2.2a12.41,12.41,0,0,0,3.9-1.8A12.23,12.23,0,0,0,70.93,263.73Z"/><path class="cls-6" d="M52.35,269.65A8.41,8.41,0,0,0,50.07,268a8.81,8.81,0,0,0-2.53-1.29,8.56,8.56,0,0,0,2.28,1.69A8.62,8.62,0,0,0,52.35,269.65Z"/><path class="cls-6" d="M49.24,257.05c.09-.1-1.11-1.28-2.22-3s-1.73-3.29-1.87-3.24a8,8,0,0,0,1.47,3.5A7.77,7.77,0,0,0,49.24,257.05Z"/><path class="cls-6" d="M55.34,254.21a10.31,10.31,0,0,0,.1-3.06,10.09,10.09,0,0,0-.38-3,9.93,9.93,0,0,0-.1,3.06A10.09,10.09,0,0,0,55.34,254.21Z"/><path class="cls-6" d="M58.71,266.66a10.33,10.33,0,0,0,.59-3.09,10.65,10.65,0,0,0,.13-3.14,10.62,10.62,0,0,0-.6,3.09A10.82,10.82,0,0,0,58.71,266.66Z"/><path class="cls-6" d="M68.13,229.14a28.34,28.34,0,0,0-1,3.49,28,28,0,0,0-1,3.48,9.42,9.42,0,0,0,1.45-3.35A9.66,9.66,0,0,0,68.13,229.14Z"/><path class="cls-6" d="M74.77,251a24,24,0,0,0-2.72-2,21.78,21.78,0,0,0-2.75-2,8.69,8.69,0,0,0,2.47,2.36A8.68,8.68,0,0,0,74.77,251Z"/><path class="cls-6" d="M83.78,244.3a21.5,21.5,0,0,0-3.32-.67,20.35,20.35,0,0,0-3.33-.6,8.73,8.73,0,0,0,3.24,1.06A8.7,8.7,0,0,0,83.78,244.3Z"/><path class="cls-6" d="M75,236.8a5,5,0,0,0-1.9.93c-1,.63-1.71,1.22-1.64,1.33a4.78,4.78,0,0,0,1.9-.93C74.34,237.51,75.08,236.91,75,236.8Z"/><path class="cls-6" d="M79.39,228.7a5.66,5.66,0,0,0-2.16,1.78,5.76,5.76,0,0,0-1.47,2.38,15,15,0,0,0,1.83-2.07A16.1,16.1,0,0,0,79.39,228.7Z"/><path class="cls-6" d="M85.36,236.42a15.89,15.89,0,0,0-3.07.76,16,16,0,0,0-3,.88,8.08,8.08,0,0,0,3.16-.42A8.16,8.16,0,0,0,85.36,236.42Z"/><path class="cls-6" d="M44,226a46.2,46.2,0,0,0-2.69-4.1,47.13,47.13,0,0,0-2.74-4.08,17.93,17.93,0,0,0,2.34,4.34A18,18,0,0,0,44,226Z"/><path class="cls-6" d="M46.66,216.58a25.75,25.75,0,0,0-.92-7,13.7,13.7,0,0,0,.23,3.53A13.41,13.41,0,0,0,46.66,216.58Z"/><path class="cls-6" d="M55.85,218.05c-.14,0-.52,1.79-1.43,3.87s-2,3.61-1.84,3.7a9.5,9.5,0,0,0,2.27-3.51A9.43,9.43,0,0,0,55.85,218.05Z"/><path class="cls-6" d="M66.64,220.33c-.1-.08-1.45,1.5-3.31,3.24s-3.51,3-3.43,3.1a13.39,13.39,0,0,0,3.76-2.76A13.66,13.66,0,0,0,66.64,220.33Z"/><path class="cls-6" d="M62.47,200.73c-.14,0-.55,2-1.3,4.36s-1.51,4.27-1.38,4.33a14.33,14.33,0,0,0,1.84-4.19A14.12,14.12,0,0,0,62.47,200.73Z"/><path class="cls-6" d="M50,194.28a25.76,25.76,0,0,0-.42,7,13.38,13.38,0,0,0,.45-3.49A12.49,12.49,0,0,0,50,194.28Z"/><path class="cls-6" d="M24.37,210.86a14.52,14.52,0,0,0-2.67.19,14.38,14.38,0,0,0-2.67.24,5.36,5.36,0,0,0,2.71.23A5.47,5.47,0,0,0,24.37,210.86Z"/><path class="cls-6" d="M25.13,204.39a19.25,19.25,0,0,0-3.67-2.22,19.26,19.26,0,0,0-3.9-1.8,19.86,19.86,0,0,0,3.67,2.22A20.69,20.69,0,0,0,25.13,204.39Z"/><path class="cls-6" d="M32.07,204.62a12.27,12.27,0,0,0-.78-3.3,12.41,12.41,0,0,0-1.24-3.15,11.8,11.8,0,0,0,.78,3.29A12.59,12.59,0,0,0,32.07,204.62Z"/><g class="cls-9"><path d="M51.5,284.76a11.1,11.1,0,0,1,4.75-8.71c2.8-1.89,7.85-2.07,9.84-.66a15.25,15.25,0,0,0-8.64,3,24.3,24.3,0,0,0-6,6.39"/></g><g class="cls-9"><path d="M40.52,241.32A9.6,9.6,0,0,1,47.3,236c2.88-.53,7,1.07,8,2.88a13.18,13.18,0,0,0-7.88-.62,21,21,0,0,0-6.94,3"/></g><g class="cls-9"><path d="M33.26,215.48a7.6,7.6,0,0,1-.47-6.56c.85-2.11,2.5-3.14,4.69-3.77-2.24,3.24-4,6.53-4.16,10.46"/></g><path class="cls-6" d="M78.2,278.93s.37.34,1,1a18.88,18.88,0,0,1,2.15,3.16,34.35,34.35,0,0,1,3.09,12.19A56.28,56.28,0,0,1,83.78,308c-.26,1.61-.5,2.9-.66,3.8a7.32,7.32,0,0,0-.22,1.4,6.64,6.64,0,0,0,.41-1.36c.23-.88.53-2.17.83-3.78a50.13,50.13,0,0,0,.78-12.75,32.51,32.51,0,0,0-3.29-12.33,16.47,16.47,0,0,0-2.32-3.12A3.75,3.75,0,0,0,78.2,278.93Z"/><path class="cls-6" d="M39.14,313.16l.25,0,.76,0,2.89,0,10.63.08,35.06.07,34.65-.07-.17-.17c0,4.59,0,8.32,0,10.94,0,1.27,0,2.26,0,3,0,.31,0,.57,0,.77s0,.26,0,.26a.9.9,0,0,0,0-.26c0-.2,0-.46,0-.77,0-.72,0-1.71,0-3,0-2.62.06-6.34.11-10.94V313h-.17l-34.65-.06L53.67,313,43,313.07l-2.89,0-.76,0A1.27,1.27,0,0,0,39.14,313.16Z"/><path class="cls-10" d="M169.21,173.12s-24.5,7-29.05,25.93C135.85,217,127,256.62,127,256.62s34.42-1.75,47.91-6.37Z"/><path class="cls-10" d="M275.82,167.77c-1.31-.84-18.7-4.46-18.7-4.46l-41.94,1.1-15,2.77s-2.79,46.6-2.37,47.44,19.82,16.84,20.64,17.68,40.89-12.63,40.89-12.63l26.43-47.41Z"/><path class="cls-10" d="M376,295.34a23.34,23.34,0,0,0,.7-23.06C370.3,259.6,312,184.62,312,184.62s-22.15,18.13-20.93,39.16l9.34,23.34,37.84,36.52Z"/><path class="cls-10" d="M270.91,165.92c2.1,0,30.2,6.21,39.72,14.3,10.09,8.56,40.13,45.88,40.13,45.88l-44.22,31.39-4.66-6.25-7.47,46.9s19.26,51.93,21.78,71.71L148.9,369.5s14.49-43.34,20.5-57.38c1.18-2.75-11.38-45.73-11.32-57.06.09-18.21,5.29-54.29,5.29-54.29l5.84-27.65,40.17-7.64s5.32,22.69,27.61,22.69C263.22,188.17,270.91,165.92,270.91,165.92Z"/><g class="cls-9"><path class="cls-10" d="M314.64,360.11c-.19-2.4-.37-4.8-.56-7.21l-28.44-12H263.4a5.65,5.65,0,0,0,3.08,4.5,17,17,0,0,0,5.44,1.62,16.35,16.35,0,0,1,5.42,1.66,14.53,14.53,0,0,0-3.94,2.68c3,2.62,7.55,1.77,11.42,2.66,6.24,1.44,10.44,7.41,16.38,9.81a15.59,15.59,0,0,0,10.77.29,4,4,0,0,0,2.47-1.81A4.66,4.66,0,0,0,314.64,360.11Z"/></g><path class="cls-10" d="M298.53,211.38a3.53,3.53,0,0,1,.21.66l.5,1.9c.22.82.46,1.84.69,3s.54,2.54.76,4.05c.12.75.25,1.54.38,2.36s.21,1.69.33,2.58c.24,1.78.37,3.7.55,5.71.26,4,.37,8.47.24,13.13a165.08,165.08,0,0,1-2.53,23.7c-.54,3-1,5.42-1.42,7.08-.19.79-.34,1.42-.45,1.91a2.93,2.93,0,0,1-.2.66,5.54,5.54,0,0,1,.09-.68c.09-.5.21-1.14.36-1.93.33-1.67.76-4.1,1.26-7.11a183.9,183.9,0,0,0,2.37-23.65c.13-4.64,0-9.06-.2-13.08-.16-2-.28-3.91-.5-5.69-.1-.89-.18-1.75-.3-2.57s-.23-1.61-.34-2.36c-.2-1.51-.47-2.86-.69-4.05s-.41-2.22-.6-3.05-.3-1.43-.4-1.92A3.06,3.06,0,0,1,298.53,211.38Z"/><path class="cls-10" d="M165.22,214.87a3.13,3.13,0,0,1,.12.68c.06.49.13,1.13.23,1.93.2,1.68.43,4.12.69,7.14.51,6,.94,14.39,1.22,23.62s.64,17.59,1.06,23.62c.22,3,.39,5.4.52,7.15.06.8.1,1.45.14,1.94a3.49,3.49,0,0,1,0,.68,2.76,2.76,0,0,1-.12-.67c-.06-.49-.13-1.13-.23-1.93-.2-1.68-.43-4.12-.69-7.14-.51-6-.94-14.39-1.21-23.63s-.65-17.58-1.07-23.61c-.21-3-.39-5.4-.52-7.15-.06-.8-.1-1.45-.14-1.94A3.65,3.65,0,0,1,165.22,214.87Z"/><path class="cls-10" d="M266.22,305.21a3,3,0,0,1-.63.2l-1.82.47c-1.59.41-3.9.94-6.76,1.53a222.05,222.05,0,0,1-22.59,3.46A223.32,223.32,0,0,1,211.6,312c-2.93,0-5.29-.07-6.92-.15l-1.88-.1a3.18,3.18,0,0,1-.66-.07,3.1,3.1,0,0,1,.66,0h1.88c1.63,0,4,0,6.92,0,5.84-.06,13.9-.37,22.77-1.26s16.83-2.2,22.57-3.3c2.87-.55,5.18-1,6.78-1.36l1.84-.38A3.18,3.18,0,0,1,266.22,305.21Z"/><path class="cls-6" d="M279.6,37.29c7.28-5.52,22-1.74,24.71,3.28a11.56,11.56,0,0,1,13.95,7.72l15.21,6.42c2.59,1.09,5.3,2.27,7,4.49s2.08,5.8,0,7.65c5.31,2.49,6,11.21,1.06,14.45A6.11,6.11,0,0,1,339,89.83a61,61,0,0,1,6.92,19.55c.5,2.86.73,6-.76,8.5s-5.36,3.68-7.37,1.58a7.16,7.16,0,0,1-1.08,7.65c2.67.57,2.69,4.86.49,6.47s-5.24,1.25-7.91.69-5.55-1.25-8-.13a2.5,2.5,0,0,0,.55,1.87c3.91,4.6,4,11.29-.33,15.48-.41.38-.78.74-1.11,1.06-2,1.92-6.19,3.22-8.81,4-6.65,2-10.15.77-17.1.48,1,4.71-11.76,12.33-22.57.49C245.54,159.6,227,158.79,201,154c-3.71-.68-8.08-2-9.1-5.65-3.16.24-6.14-1.76-8-4.35s-2.68-5.71-3.51-8.76a16.46,16.46,0,0,1-8.92-16.73,20.32,20.32,0,0,1-4.88-15.6c-5.89-3.07-7.82-11.81-3.77-17.07a71.86,71.86,0,0,1,11.79-20.45c-4.08-1.71-4.62-7.74-2.13-11.4s6.84-5.49,10.94-7.15c-3.33.26-5.36-4.25-4-7.31s4.64-4.73,7.77-5.9a61,61,0,0,1,14.27-3.42c2.56-5.31,10.9-10.35,16.6-11.86,23-6.06,38.28-5.83,61.53,18.92"/><path class="cls-11" d="M213.25,66.6c4.39-14.24,18.25-29.66,32.28-24.67l42.24,22.21a8.71,8.71,0,0,1,5.51,10.42l-24.74,96a27.2,27.2,0,0,1-27.71,20.37h0a27.19,27.19,0,0,1-25.3-32.38c1.3-6.67,2.27-11.69,2.26-11.66s-17.73-7.52-15.75-32.54C203,101.92,208.36,82.42,213.25,66.6Z"/><path class="cls-6" d="M218.55,90.09a3.19,3.19,0,0,0,2.23,3.84,3,3,0,0,0,3.86-2,3.18,3.18,0,0,0-2.23-3.84A3,3,0,0,0,218.55,90.09Z"/><path class="cls-6" d="M215.05,77.85c.28.49,3-.67,6.37.14s5.35,3.06,5.81,2.74c.22-.14,0-1-.87-2a8.72,8.72,0,0,0-4.53-2.69,8.35,8.35,0,0,0-5.19.39C215.42,77,214.9,77.62,215.05,77.85Z"/><path class="cls-6" d="M249.09,97.75a3.18,3.18,0,0,0,2.23,3.84,3,3,0,0,0,3.86-2A3.18,3.18,0,0,0,253,95.73,3,3,0,0,0,249.09,97.75Z"/><path class="cls-6" d="M247.58,86.35c.29.49,3-.67,6.37.14s5.36,3.06,5.82,2.74c.22-.14,0-1-.87-2a8.72,8.72,0,0,0-4.54-2.7,8.43,8.43,0,0,0-5.19.4C248,85.48,247.44,86.12,247.58,86.35Z"/><path class="cls-6" d="M229.57,108.1c.06-.18-1.92-1-5.16-2.27-.83-.3-1.6-.66-1.6-1.27a4.45,4.45,0,0,1,1.18-2.38l4.06-5.86C233.76,88,238.11,81,237.77,80.76s-5.24,6.37-10.94,14.74l-4,5.92a5.07,5.07,0,0,0-1.24,3.23,2.18,2.18,0,0,0,1.1,1.58,5.88,5.88,0,0,0,1.39.54C227.43,107.77,229.51,108.29,229.57,108.1Z"/><path class="cls-12" d="M217.79,146.9a63.1,63.1,0,0,0,34.35-.83s-11.82,14.67-35.4,6.6Z"/><path class="cls-6" d="M249.42,72.3c.11,1,3.53,1.36,7.32,2.77s6.69,3.23,7.4,2.55c.32-.33,0-1.32-1.08-2.5a13.6,13.6,0,0,0-11.22-4.05C250.27,71.3,249.38,71.84,249.42,72.3Z"/><path class="cls-6" d="M219,66.69c.4.89,2.88.66,5.64,1.29s5,1.73,5.7,1.07c.32-.33.14-1.17-.71-2.13A8.41,8.41,0,0,0,220.47,65C219.31,65.56,218.81,66.26,219,66.69Z"/><path class="cls-6" d="M200.05,76.16a17,17,0,0,1,6.07-9.69c1.73-1.25,3.76-2,5.35-3.47,3.44-3.07,4-8.13,6-12.27a18.72,18.72,0,0,1,13.77-10.15c4.88-.74,10,.48,14.73-.95,3.49-1.07,6.46-3.51,10-4.37,6.9-1.67,13.63,3,18.93,7.75.26,5-3.55,8.52-7.22,11.91a17.35,17.35,0,0,1-13.83,4.39c-3.84-.51-8.11-2.23-11.31,0-3.36,2.3-3.25,7.54-6.19,10.36-4.21,4-11.37.79-16.87,2.72-4.24,1.49-6.73,5.74-9.42,9.35s-6.82,7.1-11.19,6A50.4,50.4,0,0,1,200.05,76.16Z"/><path class="cls-6" d="M263.78,49.83A88,88,0,0,1,295.2,62c2.85,1.8,5.74,4,6.95,7.1,1.06,2.76.66,5.86.06,8.76-1.88,9.09-7.71,19.52-12.82,27.27l-12.7,4.59c-8.35-3.77-1.39-18.11.5-25.61a18.22,18.22,0,0,1-7.38-17.83A20.18,20.18,0,0,1,263.78,49.83Z"/><path class="cls-11" d="M277.48,106.51c1.36-5.14,7.95-4.91,11.91-1.35,2.17,2,3.45,5.22,2.06,10.69-3.71,14.58-17.58,7.85-17.5,7.42C274,123,275.9,112.53,277.48,106.51Z"/><path class="cls-12" d="M279.81,118.88c.07,0,.21.24.58.55a2.62,2.62,0,0,0,1.89.52c1.69-.17,3.61-2.29,4.35-4.9a8.6,8.6,0,0,0,.21-3.81,3,3,0,0,0-1.41-2.44,1.34,1.34,0,0,0-1.68.31c-.3.36-.28.68-.36.68s-.25-.32,0-.89a1.62,1.62,0,0,1,.8-.77,2,2,0,0,1,1.5,0,3.68,3.68,0,0,1,2.08,2.94,8.85,8.85,0,0,1-.15,4.29c-.84,2.91-3.05,5.28-5.31,5.35a2.83,2.83,0,0,1-2.23-1C279.74,119.24,279.75,118.9,279.81,118.88Z"/><path class="cls-8" d="M285.25,129.54a12.48,12.48,0,0,0,2.39.3,8.79,8.79,0,0,0,2.74-.28l-.16-.12A7.47,7.47,0,0,0,301,136.37l-.24-.09a3,3,0,0,0,1.68,1.66,4.19,4.19,0,0,0,2.43.27,4,4,0,0,0,2.22-1.19,5.26,5.26,0,0,0,1.22-2.28,7.64,7.64,0,0,0-.65-5.23A22.38,22.38,0,0,0,304.5,125l-.09.33a5.3,5.3,0,0,0,3-3,7.8,7.8,0,0,0,.43-4.44,12,12,0,0,0-1.87-4.18,34.62,34.62,0,0,0-2.92-3.63l0,.34a5.65,5.65,0,0,0,2.29-4,8.1,8.1,0,0,0-.82-4.7c-1.42-2.79-3.92-4.67-6.21-6.42l.07.28a10,10,0,0,0-8.29-14.16l.18.3A9,9,0,0,0,284,69.82l.15.22a8.47,8.47,0,0,0-2.1-7.08,8.24,8.24,0,0,0-5.83-2.9l.14.18a8.33,8.33,0,0,0-.46-4,10.64,10.64,0,0,0-1.72-3.14,8.57,8.57,0,0,0-4.62-3.16l-.54-.14-.53-.06a6.64,6.64,0,0,0-.95-.08,9.59,9.59,0,0,0-1.49.13l-.89.19a1.1,1.1,0,0,0-.3.08l.31,0,.89-.15a11.66,11.66,0,0,1,1.47-.09,8.14,8.14,0,0,1,.94.1,5,5,0,0,1,.52.07l.53.15A8.51,8.51,0,0,1,274,53.22a10.58,10.58,0,0,1,1.65,3.09,8,8,0,0,1,.42,3.87l0,.17h.17a8,8,0,0,1,5.59,2.82,8.1,8.1,0,0,1,2,6.79l0,.18.19,0a8.08,8.08,0,0,1,5.35,4.1,8.19,8.19,0,0,1,.56,7.2l-.12.27.3,0A9.55,9.55,0,0,1,298,95.32l-.08.17.14.11c2.3,1.75,4.73,3.6,6.09,6.26a7.81,7.81,0,0,1,.77,4.44,5.19,5.19,0,0,1-2.09,3.68l-.22.15.17.19c2,2.31,4.09,4.72,4.69,7.6a7.34,7.34,0,0,1-.39,4.18,4.85,4.85,0,0,1-2.76,2.8L304,125l.19.23a22.2,22.2,0,0,1,3.11,4.45,7.23,7.23,0,0,1,.64,4.95,4,4,0,0,1-3.13,3.2,3.3,3.3,0,0,1-3.72-1.69L301,136l-.18.09a7.27,7.27,0,0,1-7.56-.74,7.39,7.39,0,0,1-2.81-5.87v-.17l-.17.05a8.76,8.76,0,0,1-2.65.29,12.24,12.24,0,0,1-2.36-.27,9.17,9.17,0,0,1-3.47-1.39,3.44,3.44,0,0,1-1.42-1.78c-.15-.5-.13-.78-.16-.78a.76.76,0,0,0,0,.2,1.86,1.86,0,0,0,.08.6,3.46,3.46,0,0,0,1.42,1.87"/><path class="cls-8" d="M339.49,120.51a5.29,5.29,0,0,0,.73-.78,7.86,7.86,0,0,0,1-7.63,8,8,0,0,0-4.69-4.43l.09.2a10.24,10.24,0,0,0,.08-7.54,10,10,0,0,0-2.29-3.63A23.9,23.9,0,0,0,330.79,94a8.28,8.28,0,0,1-1.71-1.52,5.22,5.22,0,0,1-1-2.08c-.38-1.54-.26-3.25-.8-4.94a9.13,9.13,0,0,0-8.11-6.19l.2.3a12,12,0,0,0-10.49-15.94l.2.29a10.57,10.57,0,0,0-14.25-12.83l.23.07A14.56,14.56,0,0,0,290.52,47a21.72,21.72,0,0,0-5.06-2.24,25.21,25.21,0,0,0-8.86-1.11A17.75,17.75,0,0,0,271,44.84a10.33,10.33,0,0,0-1.37.64l-.45.25s.63-.32,1.86-.78a18.61,18.61,0,0,1,5.58-1,25.3,25.3,0,0,1,8.76,1.18,21.17,21.17,0,0,1,5,2.25,14,14,0,0,1,4.41,4.06l.09.13.15-.06a10.15,10.15,0,0,1,13.67,12.34l-.08.27.28,0a11.59,11.59,0,0,1,10.09,15.34l-.09.29h.3a8.69,8.69,0,0,1,7.72,5.88c.51,1.57.41,3.27.81,4.9a5.39,5.39,0,0,0,1.08,2.23,8.43,8.43,0,0,0,1.8,1.59A24.25,24.25,0,0,1,334.18,97a9.63,9.63,0,0,1,2.23,3.48,10,10,0,0,1,0,7.3l-.07.15.16,0a7.74,7.74,0,0,1,4.56,4.24,7.5,7.5,0,0,1,.37,4.73,8,8,0,0,1-1.26,2.76C339.74,120.24,339.47,120.5,339.49,120.51Z"/><path class="cls-8" d="M197.65,97.18a1.48,1.48,0,0,0,.29-1.2,3,3,0,0,0-.62-1.39,5.26,5.26,0,0,0-1.65-1.27,8.59,8.59,0,0,1-2.11-1.4,4.69,4.69,0,0,1-1.21-2.69,9.19,9.19,0,0,1,.29-3.45c.29-1.21.73-2.46,1-3.84.57-2.79-.06-5.86-.18-9.08a12.38,12.38,0,0,1,.74-4.89,6,6,0,0,1,3.48-3.63c1.68-.63,3.58-.55,5.51-.75a9,9,0,0,0,2.88-.72,6,6,0,0,0,2.32-2,29.41,29.41,0,0,0,2.67-5.5,9.91,9.91,0,0,1,1.57-2.6,4.57,4.57,0,0,1,2.54-1.49,17,17,0,0,1,4.19.23,6.36,6.36,0,0,0,2.17-.11,4.13,4.13,0,0,0,1.89-1.06,14.84,14.84,0,0,0,2.28-3.47,9.19,9.19,0,0,1,9.51-4.8A9.3,9.3,0,0,1,241,45.58l.17.22.15-.22a14.3,14.3,0,0,1,10.23-5.87,13.36,13.36,0,0,1,5,.53,12.16,12.16,0,0,1,3.83,1.91A10.54,10.54,0,0,1,264,47a9.36,9.36,0,0,1,.46,1.53c0,.16.08.29.11.4s0,.13.05.13a.72.72,0,0,0,0-.14c0-.11,0-.24-.08-.4a8.67,8.67,0,0,0-.4-1.56A10.55,10.55,0,0,0,260.55,42a12.08,12.08,0,0,0-3.89-2,13.47,13.47,0,0,0-5.12-.59,14.62,14.62,0,0,0-10.52,6h.32a9.66,9.66,0,0,0-6.07-3.65,9.6,9.6,0,0,0-10,5A14.55,14.55,0,0,1,223.1,50a4.4,4.4,0,0,1-3.71,1.05,17,17,0,0,0-4.31-.23,5.09,5.09,0,0,0-2.81,1.63,10.68,10.68,0,0,0-1.63,2.72A28.94,28.94,0,0,1,208,60.63a5.58,5.58,0,0,1-2.15,1.84,8.9,8.9,0,0,1-2.74.69c-1.88.2-3.82.11-5.61.79a5.68,5.68,0,0,0-2.31,1.56,7.77,7.77,0,0,0-1.4,2.31,12.92,12.92,0,0,0-.74,5.05c.14,3.27.78,6.3.25,9-.25,1.35-.68,2.61-1,3.83a9.43,9.43,0,0,0-.25,3.55,4.91,4.91,0,0,0,1.3,2.81,8.78,8.78,0,0,0,2.19,1.41,4.89,4.89,0,0,1,1.62,1.2,2.82,2.82,0,0,1,.64,1.32A1.86,1.86,0,0,1,197.65,97.18Z"/><path class="cls-8" d="M173.45,68.79l.2-.25c.15-.18.33-.43.57-.74l2.14-2.91c.94-1.25,2-2.84,3.46-4.53a13.4,13.4,0,0,1,6-4.33c1.32-.42,2.78-.58,4.29-.93a9.19,9.19,0,0,0,2.24-.78,5.18,5.18,0,0,0,1.88-1.64c1-1.39,1.35-3.12,2.22-4.6a4.17,4.17,0,0,1,1.81-1.74,8.28,8.28,0,0,1,2.58-.64,15.68,15.68,0,0,0,2.8-.49,4.75,4.75,0,0,0,2.42-1.7c1.23-1.62,1.64-3.64,2.37-5.47a7.37,7.37,0,0,1,1.5-2.52,3.8,3.8,0,0,1,2.64-1.09c2,0,4,1.06,6.2,1.13a5.26,5.26,0,0,0,3.13-1,13.83,13.83,0,0,0,2.33-2.18,28.09,28.09,0,0,1,2.11-2.23,5.86,5.86,0,0,1,2.53-1.44c1.91-.47,3.82.36,5.56,1.13a13.21,13.21,0,0,0,5.51,1.57,15.16,15.16,0,0,0,5.3-1.27A25.2,25.2,0,0,1,250,28.62,15.53,15.53,0,0,1,258.82,30a16.63,16.63,0,0,1,5.83,4.6,18.36,18.36,0,0,1,2.76,4.93,21,21,0,0,1,.92,3.47c.07.38.13.69.17.92a.16.16,0,1,0,.05,0c0-.23-.08-.54-.13-.93a19,19,0,0,0-.84-3.51,18.45,18.45,0,0,0-2.73-5A16.76,16.76,0,0,0,259,29.74a15.8,15.8,0,0,0-9-1.5,26.47,26.47,0,0,0-4.89,1.57A15.11,15.11,0,0,1,239.9,31a12.92,12.92,0,0,1-5.33-1.55,19.25,19.25,0,0,0-2.78-1.06A5.75,5.75,0,0,0,226,29.86a28.61,28.61,0,0,0-2.15,2.26,13.19,13.19,0,0,1-2.25,2.11,4.79,4.79,0,0,1-2.86.88c-2.08-.06-4-1.14-6.22-1.13a4.19,4.19,0,0,0-2.94,1.22A7.67,7.67,0,0,0,208,37.87c-.74,1.89-1.15,3.87-2.29,5.38a4.46,4.46,0,0,1-2.21,1.55,16.3,16.3,0,0,1-2.72.49A8.56,8.56,0,0,0,198,46a4.66,4.66,0,0,0-2,1.91c-.9,1.56-1.25,3.27-2.18,4.58a6.14,6.14,0,0,1-3.9,2.3c-1.47.35-2.94.52-4.3,1a13.61,13.61,0,0,0-6.06,4.48c-1.43,1.72-2.49,3.32-3.4,4.59l-2.08,2.95-.52.78A1.31,1.31,0,0,0,173.45,68.79Z"/><path class="cls-8" d="M192.14,56.4l-.26-.1a1.76,1.76,0,0,0-.82,0,3.24,3.24,0,0,0-2,2.33,8.36,8.36,0,0,0-.11,2.27,9.37,9.37,0,0,1-.11,2.62,5.88,5.88,0,0,1-1.57,2.53c-.74.77-1.64,1.51-2.44,2.45a4.31,4.31,0,0,0-1.08,3.64c.22,1.35.93,2.58,1.13,3.94a5.57,5.57,0,0,1-1.19,4c-.83,1.24-1.91,2.39-2.76,3.77a6.82,6.82,0,0,0-.94,2.31,6.11,6.11,0,0,0,.09,2.55,28.94,28.94,0,0,0,2,4.75,6.91,6.91,0,0,1,.65,5c-.52,1.67-1.78,3-2.75,4.63a7.66,7.66,0,0,0-1.07,2.61,6.21,6.21,0,0,0,.17,2.78,22.77,22.77,0,0,0,2.38,4.79,12.23,12.23,0,0,1,1.76,4.67,39.62,39.62,0,0,0,.64,4.89A5.62,5.62,0,0,0,185,125a6.86,6.86,0,0,0,1.89,1.41,16.86,16.86,0,0,1,1.91,1.13,7.41,7.41,0,0,1,1.47,1.49,15.33,15.33,0,0,1,1.81,3.62c.46,1.23.88,2.43,1.4,3.54a10.26,10.26,0,0,0,4.41,4.77,10.91,10.91,0,0,0,4.73,1.4,9.88,9.88,0,0,0,3.1-.29,7.11,7.11,0,0,0,1-.35,11.46,11.46,0,0,1-4.12.46A11,11,0,0,1,198,140.7a10.1,10.1,0,0,1-4.24-4.69c-.49-1.09-.9-2.28-1.36-3.52a15.52,15.52,0,0,0-1.83-3.73,7.73,7.73,0,0,0-1.55-1.58A19.11,19.11,0,0,0,187.1,126a6.68,6.68,0,0,1-1.78-1.33,5.17,5.17,0,0,1-1-2,37.68,37.68,0,0,1-.61-4.83,12.66,12.66,0,0,0-1.81-4.84,22.78,22.78,0,0,1-2.33-4.69,5.64,5.64,0,0,1-.16-2.58,7.35,7.35,0,0,1,1-2.45c.93-1.55,2.22-2.93,2.79-4.73a5.71,5.71,0,0,0,.16-2.75,11.53,11.53,0,0,0-.83-2.55,28.55,28.55,0,0,1-2-4.66,5.77,5.77,0,0,1-.09-2.37,6.61,6.61,0,0,1,.88-2.17c.82-1.34,1.88-2.49,2.74-3.76A6.07,6.07,0,0,0,185.28,76c-.23-1.46-.95-2.67-1.17-3.94a4,4,0,0,1,1-3.38c.75-.91,1.64-1.65,2.39-2.45a6.12,6.12,0,0,0,1.61-2.67,9.55,9.55,0,0,0,.08-2.7,7.59,7.59,0,0,1,.07-2.21,3.11,3.11,0,0,1,1.83-2.28A1.87,1.87,0,0,1,192.14,56.4Z"/><path class="cls-6" d="M339.21,120a5.75,5.75,0,0,0,1.19.11,8.17,8.17,0,0,0,3.37-.73,8,8,0,0,0,4-3.74,8.42,8.42,0,0,0,.15-7.19,21.47,21.47,0,0,0-2.36-3.61,10.09,10.09,0,0,1-2.07-4,6.59,6.59,0,0,1,1.14-4.64c.87-1.47,2-2.85,2.92-4.49a14.74,14.74,0,0,0-7.3-20.54l.07.37a7.43,7.43,0,0,0,1.9-3,9.45,9.45,0,0,0,.47-3.55,10.37,10.37,0,0,0-.85-3.53,12.4,12.4,0,0,0-2-3.08,23.42,23.42,0,0,0-8.94-5.82A35.47,35.47,0,0,0,321,50.14l.19.25a10.66,10.66,0,0,0-4.15-10.22,10.84,10.84,0,0,0-5-2,17.39,17.39,0,0,0-5.08.33,9.56,9.56,0,0,1-2.38.08,6.13,6.13,0,0,1-2.18-.66,19.14,19.14,0,0,1-3.53-2.67,16.16,16.16,0,0,0-3.39-2.43,13.32,13.32,0,0,0-3.63-1.23,12.59,12.59,0,0,0-6.45.48,13.09,13.09,0,0,0-4.2,2.41,12.75,12.75,0,0,0-2,2.24,7.46,7.46,0,0,0-.56.88s.2-.29.62-.84a13.5,13.5,0,0,1,2.08-2.17,13.09,13.09,0,0,1,4.17-2.32,12.52,12.52,0,0,1,6.33-.4,13.07,13.07,0,0,1,3.54,1.22,16,16,0,0,1,3.31,2.41,18.45,18.45,0,0,0,3.59,2.73,6.65,6.65,0,0,0,2.3.72,10.68,10.68,0,0,0,2.46-.07,17.37,17.37,0,0,1,5-.32,10.49,10.49,0,0,1,4.79,2,10.26,10.26,0,0,1,4,9.82l0,.24.24,0a35,35,0,0,1,9.7,2.34,22.84,22.84,0,0,1,8.76,5.7,11.83,11.83,0,0,1,1.92,3,9.73,9.73,0,0,1,.81,3.38,9.17,9.17,0,0,1-.43,3.38A7.2,7.2,0,0,1,340,71.13l-.25.24.32.13a14.32,14.32,0,0,1,7.12,19.94c-.85,1.6-2,3-2.89,4.49a7,7,0,0,0-1.17,4.89,10.43,10.43,0,0,0,2.16,4.17,20.48,20.48,0,0,1,2.35,3.54,8.23,8.23,0,0,1-.09,7,7.86,7.86,0,0,1-3.82,3.7,8.4,8.4,0,0,1-3.3.79C339.62,120,339.22,119.93,339.21,120Z"/><path class="cls-6" d="M188.92,45.25A2.16,2.16,0,0,0,189,45l.24-.82.92-3.12c.41-1.36.94-3,1.69-4.87a28.77,28.77,0,0,1,3.19-6A19.33,19.33,0,0,1,201,24.64a14.58,14.58,0,0,1,4.24-1.59,41.27,41.27,0,0,1,4.84-.43,13.41,13.41,0,0,0,5.06-1.16,21.26,21.26,0,0,0,4.48-3c1.42-1.16,2.79-2.4,4.31-3.47A15.49,15.49,0,0,1,229,12.58a27.18,27.18,0,0,1,11.1-.19,71.37,71.37,0,0,1,10.17,2.41A53.63,53.63,0,0,1,266,22.71a37.91,37.91,0,0,1,8.34,8.48c.39.58.77,1.09,1.05,1.55l.7,1.19.43.72c.1.17.16.25.17.24l-.12-.26c-.11-.19-.24-.44-.4-.75l-.66-1.21c-.28-.47-.64-1-1-1.58a36.73,36.73,0,0,0-8.29-8.64,53,53,0,0,0-15.83-8A70.37,70.37,0,0,0,240.16,12a27.2,27.2,0,0,0-11.28.19,15.84,15.84,0,0,0-5.21,2.47c-1.55,1.1-2.93,2.35-4.33,3.5a21.16,21.16,0,0,1-4.39,3,13.17,13.17,0,0,1-4.9,1.13,41.13,41.13,0,0,0-4.89.45,14.72,14.72,0,0,0-4.35,1.67,19.54,19.54,0,0,0-6,5.68,28.66,28.66,0,0,0-3.16,6.08c-.73,1.88-1.23,3.54-1.62,4.9s-.66,2.43-.84,3.16L189,45A1.28,1.28,0,0,0,188.92,45.25Z"/><path class="cls-12" d="M242.67,118.43a5.6,5.6,0,0,0-2.38-5.25,5,5,0,0,0-5.68.21,4.47,4.47,0,0,0-1.2,5.21,4.82,4.82,0,0,0,1.78,2.23,6.16,6.16,0,0,0,3.52,1,4.2,4.2,0,0,0,2.83-.95A3.92,3.92,0,0,0,242.67,118.43Z"/><path class="cls-6" d="M242.07,110.91c-.56-.09-.92,3.67-4.38,6s-7.41,1.59-7.49,2.12c-.08.23.82.81,2.51,1a9.4,9.4,0,0,0,6.24-1.55,8.19,8.19,0,0,0,3.42-5.09C242.66,111.88,242.32,110.91,242.07,110.91Z"/><g class="cls-9"><path d="M172,308.23c9.93.75,19.29-5.71,24.82-14s8-18.2,10.28-27.88q6.21-25.8,12.41-51.61c1.93-8,4.49-16.91,11.66-21,2.26-1.28,4.88-2,6.81-3.73s2.82-5.1.89-6.85c-1.71-1.54-4.4-.88-6.55-.05-6.62,2.54-13.13,5.9-17.88,11.17s-7.48,12.77-5.64,19.62"/></g><path class="cls-11" d="M181.58,209.56s-11.08,22-21.29,43.46L138,256S136.54,300,156.81,307.6c22.39,8.41,33.86-18.21,41.05-38.18,5.6-15.57,15.32-49.14,17.71-58.54Z"/><path class="cls-12" d="M165.87,242.31a6.16,6.16,0,0,1-.52,1.15c-.37.73-.91,1.76-1.6,3-1.37,2.55-3.31,6.05-5.37,10s-3.79,7.51-4.94,10.17c-.57,1.32-1,2.4-1.32,3.16a6.65,6.65,0,0,1-.51,1.15,5.26,5.26,0,0,1,.32-1.22c.24-.78.64-1.89,1.17-3.24a109.8,109.8,0,0,1,4.82-10.26c2.06-3.92,4.06-7.39,5.51-9.9l1.74-3A5.92,5.92,0,0,1,165.87,242.31Z"/><path class="cls-11" d="M212.79,220.91c2.4-9.4,7.19-25.47,10.09-28.55s20.69-10.6,22.57-13.85a4.1,4.1,0,0,0-.51-5.3,27.72,27.72,0,0,0,.85-5c.52-4.1-2.22-5.3-2.22-5.3l1-3.08c1.37-5.81-3.93-5-3.42-6.15s20.17-6.84,21.54-7.53a3.75,3.75,0,0,0,.86-6c-2.4-2.57-20.35,2.73-26.85,5s-17.61,8-18.81,5.47-.51-12.83-1.36-16.42-3.59-5.47-5.65-4.78-.68,6.49-.68,9.57A40.4,40.4,0,0,1,206,156.28c-3.77,7.87-5,18.12-5,18.12l-19.86,35.9"/><path class="cls-12" d="M181.14,210.3s.1-.22.32-.65.57-1.05,1-1.87c.9-1.65,2.21-4.06,3.91-7.16l14.45-26.3,0,.06a74.8,74.8,0,0,1,1.89-9.57,53.65,53.65,0,0,1,3.65-9.91,43.9,43.9,0,0,0,3.22-10.72,31.41,31.41,0,0,0,.41-5.83c-.11-2-.45-4-.43-6.06a7.77,7.77,0,0,1,.16-1.58,2.07,2.07,0,0,1,.94-1.41,3.42,3.42,0,0,1,3.21.4,7.56,7.56,0,0,1,3.12,5.54c.5,4.3.23,8.68.69,13.08a12.31,12.31,0,0,0,.28,1.61,3.42,3.42,0,0,0,.27.69.84.84,0,0,0,.55.33,7.43,7.43,0,0,0,3.19-.38,65.54,65.54,0,0,0,6.39-2.34c2.12-.87,4.25-1.78,6.43-2.63s4.43-1.53,6.68-2.22a118.65,118.65,0,0,1,15.67-3.8,25.19,25.19,0,0,1,4-.31,6,6,0,0,1,2,.34,2.1,2.1,0,0,1,.85.67,4.29,4.29,0,0,1,.57.84,3.83,3.83,0,0,1-.25,3.93,4,4,0,0,1-1.49,1.39c-.63.26-1.22.43-1.83.64-4.84,1.55-9.59,3-14.16,4.52-1.14.39-2.27.79-3.37,1.22-.55.22-1.1.44-1.6.7a2.53,2.53,0,0,0-.34.21c-.07,0-.07.07-.09.08a.11.11,0,0,0,0,.07c0,.05.28.23.53.32a8.56,8.56,0,0,1,1.61.79,3.36,3.36,0,0,1,1.2,1.41,5.74,5.74,0,0,1,.1,3.52h0c-.35,1.06-.69,2.07-1,3.08l-.13-.28a4.3,4.3,0,0,1,2,2.22,6,6,0,0,1,.4,2.86c-.08,1-.22,1.85-.35,2.76a21.74,21.74,0,0,1-.56,2.71l-.06-.24a4.18,4.18,0,0,1,1.29,3.35,4.71,4.71,0,0,1-1.55,3.13,34.08,34.08,0,0,1-5.57,3.64c-3.76,2.11-7.41,3.92-10.76,5.77a41.35,41.35,0,0,0-4.72,2.87,6.17,6.17,0,0,0-1.67,1.93c-.23.36-.41.74-.6,1.11s-.38.75-.55,1.13a90.44,90.44,0,0,0-3.23,8.47c-1.73,5.19-2.91,9.33-3.71,12.14-.39,1.4-.69,2.48-.9,3.22s-.32,1.1-.32,1.1.08-.38.26-1.11l.83-3.24c.76-2.83,1.9-7,3.6-12.19a88.63,88.63,0,0,1,3.2-8.52q.24-.57.54-1.14c.19-.38.38-.76.61-1.13a6.35,6.35,0,0,1,1.74-2,42.53,42.53,0,0,1,4.74-2.92c3.35-1.86,7-3.69,10.74-5.8a33.88,33.88,0,0,0,5.48-3.61,4.3,4.3,0,0,0,1.41-2.86,3.74,3.74,0,0,0-1.14-3l-.1-.1,0-.15a38.64,38.64,0,0,0,.87-5.34,5.71,5.71,0,0,0-.38-2.65,4,4,0,0,0-1.75-2l-.19-.1.06-.18,1-3.08v0a5.23,5.23,0,0,0-.08-3.23,2.87,2.87,0,0,0-1-1.21,8.35,8.35,0,0,0-1.53-.74c-.14-.06-.28-.12-.43-.2a.74.74,0,0,1-.39-.5.57.57,0,0,1,.07-.35.87.87,0,0,1,.22-.24,3,3,0,0,1,.41-.25,15.06,15.06,0,0,1,1.65-.73c1.12-.44,2.25-.84,3.39-1.23,4.58-1.56,9.34-3,14.16-4.54.59-.2,1.23-.4,1.77-.62a3.37,3.37,0,0,0,1.28-1.21,3.28,3.28,0,0,0,.23-3.41,2.87,2.87,0,0,0-1.17-1.28,5.49,5.49,0,0,0-1.83-.29,23.14,23.14,0,0,0-3.88.3,118.25,118.25,0,0,0-15.59,3.79c-2.25.69-4.49,1.38-6.65,2.21s-4.3,1.75-6.42,2.62a65.48,65.48,0,0,1-6.45,2.35,15.73,15.73,0,0,1-1.68.38,4.44,4.44,0,0,1-1.78,0,1.29,1.29,0,0,1-1-1,3.45,3.45,0,0,1-.14-.42,14.1,14.1,0,0,1-.3-1.68c-.46-4.46-.19-8.86-.67-13.07a7.06,7.06,0,0,0-2.89-5.19,3,3,0,0,0-2.73-.39,1.66,1.66,0,0,0-.69,1.1,7.88,7.88,0,0,0-.15,1.47c0,2,.31,4,.42,6a31.34,31.34,0,0,1-.43,5.92,44.12,44.12,0,0,1-3.27,10.83,53.08,53.08,0,0,0-3.66,9.84,75.87,75.87,0,0,0-1.91,9.51v0l0,0c-6.16,11.07-11.15,20-14.61,26.23-1.72,3.08-3.07,5.47-4,7.12-.45.8-.8,1.41-1.05,1.84Z"/><path class="cls-11" d="M307.39,332.64c.42,0-17.24-15.09-22.79-16.09s-15.51,1.71-15.51,1.71,1.14,5.05,5,5.3a83,83,0,0,0,8.4,0l6.26,4.52L285,326.39a6.66,6.66,0,0,0-4-.47c-4.27.82-13.72,2.62-14.59,2.73-1.12.14-5.39.85-2.54,7,0,0-4.27,5.13,4.12,6.41s16.61,2,16.61,2l6.45,3.27s-14.94-.14-17.36.57-2.14,2.71-1,3.85,16.94.42,19.64,2.27,11.81,8.68,16.79,8.11,11.25-5.12,12.1-5.55S376,295.34,376,295.34l-32.86-22.22s-29.48,54.77-31.58,58C309.34,334.48,307.39,332.64,307.39,332.64Z"/><path class="cls-12" d="M296.89,338.05a6.78,6.78,0,0,1-1.27-.48l-3.4-1.43c-1.43-.6-3.13-1.32-5.05-2.05a31.64,31.64,0,0,0-3-1,12.07,12.07,0,0,0-3.36-.07c-4.7.45-8.93,1.27-12,1.8l-3.62.65a6.32,6.32,0,0,1-1.34.18,6.85,6.85,0,0,1,1.3-.38c.84-.21,2.07-.49,3.59-.81a113.47,113.47,0,0,1,12-2,11.92,11.92,0,0,1,3.53.1,31.41,31.41,0,0,1,3.07,1.07c1.92.76,3.62,1.52,5,2.16s2.55,1.2,3.33,1.59A6.23,6.23,0,0,1,296.89,338.05Z"/><path class="cls-12" d="M359.55,278.05c0,.1-1.4-.22-3.66-.32a25.26,25.26,0,0,0-4,.15,28,28,0,0,0-4.74,1,28.47,28.47,0,0,0-4.47,1.89,25.76,25.76,0,0,0-3.33,2.15c-1.8,1.38-2.75,2.43-2.82,2.36a3.44,3.44,0,0,1,.62-.78,8.71,8.71,0,0,1,.81-.83c.34-.31.7-.69,1.16-1a23.32,23.32,0,0,1,3.33-2.28,26.06,26.06,0,0,1,4.54-2,27.15,27.15,0,0,1,4.85-1,22.76,22.76,0,0,1,4,0,14.57,14.57,0,0,1,1.54.18,8.15,8.15,0,0,1,1.15.22A4,4,0,0,1,359.55,278.05Z"/></g></g></svg>