<svg width="131" height="131" viewBox="0 0 131 131" fill="none" xmlns="http://www.w3.org/2000/svg">
<circle cx="65.5" cy="65.5" r="65.5" fill="#FFECD0"/>
<path d="M59.2381 62.7569C54.2556 57.7246 49.6523 52.9659 44.8963 48.3587C43.8033 47.3034 42.2573 46.6047 40.7951 46.0575C38.2398 45.0999 36.1868 46.1455 35.4187 48.7349C35.0298 50.0541 34.8181 51.4709 34.8131 52.8438C34.7639 65.0727 34.7885 77.3017 34.7738 89.5306C34.7738 91.5093 33.5035 93.2291 31.7212 93.7617C29.934 94.2991 27.881 93.6932 26.8717 92.12C26.3941 91.3725 26.0396 90.3954 26.0396 89.5257C26.0298 76.4174 25.887 63.2992 26.212 50.1957C26.3794 43.4925 30.6676 38.0205 37.4078 37.1313C42.2573 36.4913 46.4865 38.2404 50.0905 41.2891C52.9362 43.6929 55.5062 46.4191 58.1648 49.0378C60.5527 51.3927 62.8913 53.7965 65.3333 56.2589C65.7715 55.8827 66.0915 55.6384 66.3771 55.3599C70.6949 51.0996 74.9782 46.8051 79.3305 42.5838C82.2403 39.7599 85.6473 37.7909 89.7386 37.19C96.2769 36.2275 101.909 39.6963 103.888 46.1211C104.548 48.2659 104.913 50.5817 104.932 52.8243C105.036 64.8187 104.991 76.818 104.986 88.8124C104.986 91.9344 103.165 93.9766 100.486 93.9229C97.9262 93.8691 96.139 91.9784 96.139 89.2668C96.1341 77.2724 96.1636 65.2731 96.1046 53.2786C96.0947 51.681 95.8682 50.0199 95.3808 48.5053C94.598 46.0917 92.7025 45.1341 90.2851 46.038C88.5767 46.678 86.8289 47.5965 85.5143 48.8326C81.0291 53.0539 76.731 57.4657 72.3639 61.8042C72.1719 61.9947 72.0242 62.2293 71.6106 62.752C73.4569 64.4718 75.4115 66.0792 77.1199 67.9162C84.9235 76.3001 81.0291 90.1413 70.0204 93.3415C63.0882 95.3593 55.7967 92.633 52.0697 86.6285C48.2836 80.5311 49.0861 72.8312 54.1178 67.6035C55.7721 65.8935 57.5691 64.3301 59.2381 62.7569ZM65.5302 68.654C63.7184 70.4324 61.9755 72.0398 60.3557 73.7595C57.8743 76.3881 57.9876 80.7852 60.5084 83.2281C63.2458 85.8761 67.5242 85.9543 70.2764 83.4039C72.8612 81.0051 73.1566 76.5884 70.7737 73.9305C69.1637 72.1277 67.3716 70.491 65.5302 68.654Z" fill="#FF3974"/>
</svg>
