<svg width="273" height="233" viewBox="0 0 273 233" fill="none" xmlns="http://www.w3.org/2000/svg">
<path d="M135.24 232.72C209.401 232.72 269.52 225.915 269.52 217.52C269.52 209.125 209.401 202.32 135.24 202.32C61.0792 202.32 0.959991 209.125 0.959991 217.52C0.959991 225.915 61.0792 232.72 135.24 232.72Z" fill="#E2CFCF"/>
<path d="M269.92 214C269.92 223.94 213.63 232.01 140.8 232.01C67.98 232 11.69 223.94 11.69 214L8.94 191.08H272.67L269.92 214Z" fill="#2D2D2D"/>
<path d="M148.76 229.91C75.93 229.91 19.64 221.85 19.64 211.9L17.14 191.08H8.92999L11.69 214C11.69 223.94 67.98 232.01 140.81 232.01C194.14 232.01 238.59 227.69 258.58 221.47C236.07 226.54 195.88 229.91 148.76 229.91Z" fill="#DDCCCC"/>
<path d="M271.13 191.08H11.08C10.28 191.36 9.58998 191.64 9.03998 191.93L9.50998 195.87C21.08 201.13 75.49 203.71 141 203.71C170.87 203.71 198.59 201.48 220.86 200.08" fill="#DDBCBC"/>
<path d="M272.67 191.08C272.67 197.34 213.63 202.41 140.81 202.41C67.98 202.41 8.94998 197.34 8.94998 191.08C8.94998 184.82 67.99 179.75 140.81 179.75C213.63 179.75 272.67 184.82 272.67 191.08Z" fill="#636363"/>
<path d="M71.92 194.58C71.92 194.58 45.28 194.26 33.27 184.52C33.27 184.52 43.52 183.4 46.4 183.17L71.92 194.58Z" fill="#D8D8D8"/>
<path opacity="0.1" d="M272.67 191.08C272.67 197.34 213.63 202.41 140.81 202.41C67.98 202.41 8.94998 197.34 8.94998 191.08C8.94998 184.82 67.99 179.75 140.81 179.75C213.63 179.75 272.67 184.82 272.67 191.08Z" fill="#EA2828"/>
<path d="M148.33 201.2C75.5 201.2 16.47 196.4 16.47 190.47C16.47 184.65 73.47 179.91 144.54 179.75C143.3 179.75 142.06 179.75 140.81 179.75C67.98 179.75 8.94998 184.82 8.94998 191.08C8.94998 197.34 67.99 202.41 140.81 202.41C188.93 202.41 231.03 200.19 254.05 196.89C230 199.51 191.6 201.2 148.33 201.2Z" fill="#E0B3B3"/>
<path d="M16.46 193.59C16.46 187.33 75.5 182.26 148.32 182.26C204.45 182.26 252.37 185.27 271.41 189.52C262.56 184 207.46 179.75 140.8 179.75C67.97 179.75 8.94 184.82 8.94 191.08C8.94 192.51 12.05 193.89 17.72 195.15C16.9 194.64 16.46 194.12 16.46 193.59Z" fill="#EACCCC"/>
<path d="M240.77 188.81C240.77 193.56 198.57 197.4 143.97 197.4C89.37 197.4 47.17 193.55 47.17 188.81L45.11 180.76H242.83L240.77 188.81Z" fill="#444444"/>
<path d="M149.94 196.4C95.34 196.4 53.14 192.55 53.14 187.81L50.76 180.46L45.12 180.76L47.18 188.81C47.18 193.56 89.38 197.4 143.98 197.4C183.96 197.4 217.29 195.34 232.27 192.37C215.39 194.79 185.26 196.4 149.94 196.4Z" fill="#E2CFCF"/>
<path d="M242.83 180.76L45.54 181.46C44.94 181.67 45.96 181.25 45.54 181.46C54.22 185.4 95.01 187.34 144.12 187.34C166.52 187.34 187.3 185.67 203.99 184.62" fill="#DDC7C7"/>
<path d="M242.83 180.76C242.83 183.86 198.57 186.37 143.97 186.37C89.37 186.37 45.11 183.86 45.11 180.76C45.11 177.66 89.37 175.15 143.97 175.15C198.57 175.15 242.83 177.66 242.83 180.76Z" fill="#636363"/>
<path opacity="0.4" d="M242.83 180.76C242.83 183.86 198.57 186.37 143.97 186.37C89.37 186.37 45.11 183.86 45.11 180.76C45.11 177.66 89.37 175.15 143.97 175.15C198.57 175.15 242.83 177.66 242.83 180.76Z" fill="#EA2828"/>
<path d="M149.61 185.77C95.01 185.77 50.75 183.39 50.75 180.46C50.75 177.58 93.48 175.23 146.76 175.15C145.83 175.15 144.9 175.15 143.97 175.15C89.37 175.15 45.11 177.66 45.11 180.76C45.11 183.86 89.37 186.37 143.97 186.37C180.05 186.37 211.6 185.27 228.87 183.64C210.84 184.93 182.05 185.77 149.61 185.77Z" fill="#D8D8D8"/>
<path d="M50.75 182C50.75 178.9 95.01 176.39 149.61 176.39C191.69 176.39 227.62 177.88 241.89 179.98C235.25 177.25 193.94 175.14 143.97 175.14C89.37 175.14 45.11 177.65 45.11 180.75C45.11 181.46 47.44 182.14 51.69 182.76C51.08 182.52 50.75 182.26 50.75 182Z" fill="#D8D8D8"/>
<path opacity="0.5" d="M200.31 185.37L199.49 195.88L212.85 200.58L211.17 229.17C211.17 229.17 224.72 227.88 231.05 226.96L234.16 198.63L214.93 194.66L215.98 184.62C215.99 184.61 208.27 184.87 200.31 185.37Z" fill="#F9D4D4"/>
<path opacity="0.5" d="M219.44 184.38L218.05 194.38L238.58 198.68L235.04 226.39L238.58 225.84L242.35 198.31L219.33 193.71L220.38 184.31L219.44 184.38Z" fill="#F9D4D4"/>
<path d="M224.15 180.76C224.15 183.27 188.26 185.31 143.98 185.31C99.7 185.31 63.8 183.27 63.8 180.76C63.8 178.25 99.7 176.21 143.98 176.21C188.26 176.21 224.15 178.25 224.15 180.76Z" fill="#DB1D1D"/>
<path opacity="0.4" d="M224.05 180.76C224.05 183.32 187.08 185.4 141.48 185.4C95.88 185.4 63.13 183.32 63.13 180.76L59.03 74.79C59.02 33.49 95.99 0 141.59 0C187.19 0 224.16 33.49 224.16 74.78L224.05 180.76Z" fill="#DB1D1D"/>
<path d="M222.07 178.64C222.07 181.14 185.99 183.17 141.48 183.17C96.97 183.17 65.02 181.14 65.02 178.64L61.01 75.21C61.01 34.91 97.09 2.21997 141.6 2.21997C186.11 2.21997 222.19 34.9 222.19 75.21L222.07 178.64Z" fill="#EA2828"/>
<path d="M73.13 178.59L69.12 73.89C69.12 41.74 91.52 14.39 122.79 4.22998C87.35 11.9 61 40.77 61 75.22L65.01 178.65C65.01 181.15 96.97 183.18 141.47 183.18C142.85 183.18 144.22 183.18 145.58 183.17C103.18 183.05 73.13 181.04 73.13 178.59Z" fill="#D3D9DD"/>
<path d="M211.41 177.7L211.52 69.16C211.52 52.51 206.05 37.1 196.78 24.54C189.28 17.97 180.35 12.72 170.45 9.25C181.4 23.25 187.96 41.09 187.96 60.51L187.85 175.99C187.85 178.43 160.96 180.47 125.19 180.94C130.54 181.01 136.14 181.04 141.98 181.04C169.98 181.04 194.55 180.22 208.49 178.98C210.38 178.58 211.41 178.15 211.41 177.7Z" fill="#F7C4C4"/>
<path d="M119.72 180.94C155.49 180.46 182.38 178.43 182.38 175.99L182.49 60.51C182.49 43.25 174.41 21.78 165.58 8.59998C162.05 6.73998 158.34 5.94998 154.49 4.59998C165.44 18.6 174.89 41.08 174.89 60.51L174.78 175.99C174.78 178.43 147.89 180.47 112.12 180.94C117.47 181.01 123.07 181.04 128.91 181.04C130.25 181.04 131.59 181.04 132.91 181.03C128.36 181.03 123.95 181 119.72 180.94Z" fill="#F7C4C4"/>
<path d="M73.96 66.85C73.96 66.85 79.58 30.83 102.18 18.46C102.18 18.46 82.31 35.17 77.23 66.93L76.93 81.3L73.96 66.85Z" fill="#F7C4C4"/>
<g opacity="0.6">
<path d="M171.22 134.86C171.22 119.88 159.07 107.73 144.09 107.73C129.11 107.73 116.96 119.87 116.96 134.86C116.96 139.49 118.12 143.84 120.16 147.66C121.23 149.66 122.56 151.51 124.08 153.17H124.07C124.07 153.17 124.11 153.21 124.19 153.29C124.3 153.41 124.42 153.53 124.53 153.65C126.5 155.78 134.21 164.58 134.71 172.42C135.02 177.29 134.99 178.94 134.9 179.43C134.9 179.43 139.76 182.05 153.27 179.71C153.18 179.22 153.16 177.57 153.46 172.7C154.03 163.7 164.1 153.44 164.1 153.44L163.69 153.6C168.35 148.73 171.22 142.13 171.22 134.86Z" fill="#DB1D1D"/>
<path d="M171.22 134.86C171.22 119.88 159.07 107.73 144.09 107.73C143.08 107.73 142.09 107.79 141.11 107.9C154.69 109.39 165.26 120.89 165.26 134.86C165.26 142.13 162.39 148.73 157.73 153.6L158.14 153.44C158.14 153.44 148.07 163.7 147.5 172.7C147.19 177.57 147.22 179.22 147.31 179.71C144.63 180.17 142.3 180.44 140.27 180.57C143.18 180.8 147.41 180.72 153.27 179.71C153.18 179.22 153.16 177.57 153.46 172.7C154.03 163.7 164.1 153.44 164.1 153.44L163.69 153.6C168.35 148.73 171.22 142.13 171.22 134.86Z" fill="#F2BDBD"/>
<path d="M124.57 148.12C124.57 148.12 113.35 126.68 133.94 115.18C133.94 115.18 119.46 123.98 124.57 148.12Z" fill="#F2BDBD"/>
</g>
<path d="M140.81 224.12C144.803 224.12 148.04 220.883 148.04 216.89C148.04 212.897 144.803 209.66 140.81 209.66C136.817 209.66 133.58 212.897 133.58 216.89C133.58 220.883 136.817 224.12 140.81 224.12Z" fill="#212121"/>
<path d="M146.93 219.8C146.93 223.8 143.69 227.03 139.7 227.03C135.71 227.03 132.47 223.79 132.47 219.8C132.47 215.8 135.71 212.57 139.7 212.57C143.69 212.57 146.93 215.81 146.93 219.8Z" fill="#D8D8D8"/>
<path d="M148.04 218.15C148.04 222.15 144.8 225.38 140.81 225.38C136.81 225.38 133.58 222.14 133.58 218.15C133.58 214.15 136.82 210.92 140.81 210.92C144.8 210.91 148.04 214.15 148.04 218.15Z" fill="#1E1B1B"/>
<path d="M137.44 212.38C140.63 210.52 144.71 211.6 146.57 214.78C148.43 217.96 147.35 222.05 144.17 223.91" fill="white"/>
</svg>
