<svg width="39" height="39" viewBox="0 0 39 39" fill="none" xmlns="http://www.w3.org/2000/svg">
<circle cx="19.5" cy="19.5" r="19.5" fill="#FF3974"/>
<path d="M17.6356 18.6833C16.1522 17.1852 14.7817 15.7685 13.3658 14.3969C13.0404 14.0827 12.5802 13.8747 12.1449 13.7118C11.3842 13.4267 10.7729 13.738 10.5443 14.5089C10.4285 14.9016 10.3655 15.3234 10.364 15.7321C10.3493 19.3728 10.3567 23.0135 10.3523 26.6541C10.3523 27.2432 9.9741 27.7552 9.44351 27.9138C8.91144 28.0738 8.30022 27.8934 7.99975 27.425C7.85757 27.2025 7.75204 26.9116 7.75204 26.6527C7.7491 22.7502 7.7066 18.8448 7.80334 14.9438C7.85317 12.9482 9.12984 11.3191 11.1364 11.0544C12.5802 10.8638 13.8393 11.3845 14.9122 12.2922C15.7594 13.0078 16.5245 13.8194 17.316 14.599C18.0269 15.3001 18.7231 16.0157 19.4501 16.7488C19.5806 16.6368 19.6759 16.5641 19.7609 16.4812C21.0463 15.2128 22.3215 13.9343 23.6173 12.6776C24.4835 11.8369 25.4978 11.2507 26.7158 11.0718C28.6624 10.7853 30.3392 11.818 30.9284 13.7307C31.1248 14.3692 31.2333 15.0587 31.2391 15.7263C31.2699 19.2972 31.2567 22.8695 31.2553 26.4403C31.2553 27.3698 30.7129 27.9778 29.9156 27.9618C29.1534 27.9458 28.6213 27.3829 28.6213 26.5756C28.6199 23.0047 28.6286 19.4324 28.6111 15.8616C28.6081 15.3859 28.5407 14.8914 28.3956 14.4405C28.1625 13.722 27.5982 13.4369 26.8785 13.706C26.3699 13.8965 25.8496 14.17 25.4582 14.5379C24.1229 15.7947 22.8433 17.1081 21.5432 18.3997C21.4861 18.4564 21.4421 18.5263 21.319 18.6819C21.8686 19.1939 22.4505 19.6724 22.9591 20.2193C25.2823 22.7153 24.1229 26.836 20.8455 27.7887C18.7818 28.3894 16.611 27.5778 15.5014 25.7902C14.3743 23.9749 14.6132 21.6826 16.1112 20.1262C16.6037 19.6172 17.1387 19.1517 17.6356 18.6833ZM19.5088 20.439C18.9694 20.9684 18.4505 21.4469 17.9683 21.9589C17.2295 22.7415 17.2633 24.0505 18.0137 24.7778C18.8287 25.5662 20.1024 25.5894 20.9218 24.8302C21.6913 24.116 21.7792 22.8011 21.0698 22.0098C20.5905 21.4731 20.057 20.9859 19.5088 20.439Z" fill="#FFECD0"/>
</svg>
